<svg data-name="Layer 1" xmlns="http://www.w3.org/2000/svg" viewBox="0 0 210.83 47.83"><defs><clipPath id="a"><path d="M42.08 22.78A19.25 19.25 0 1122.83 3.53a19.25 19.25 0 0119.25 19.25z" fill="none" clip-rule="evenodd"/></clipPath></defs><path d="M65.47 32.66l-.75-.06h-2.18c-.25-.69-.52-1.49-.86-2.4s-.68-1.79-1-2.64-.69-1.68-1-2.51l-3.58-8.28-3.58 8.32c-1.41 3.52-2.33 6-2.78 7.54-.15 0-.34 0-.55-.05h-1.01a2.87 2.87 0 01-.45.05l8.73-19.51h.66l8.35 19.54zm5.41-10.79h4.33c.33 0 .8 0 1.4-.07l1.09-.07a2 2 0 000 .21v.75a2.54 2.54 0 000 .29 1.84 1.84 0 000 .26c-.27 0-.66 0-1.19-.08s-1-.06-1.29-.07h-4.34v8.16c1.14 0 2.83 0 5-.1a20.32 20.32 0 002.57-.25v.26a3.11 3.11 0 000 .32 1.29 1.29 0 000 .25 3.07 3.07 0 000 .42 3.15 3.15 0 010 .43H68.37v-19h9.93v.41a2.29 2.29 0 000 .43 3.73 3.73 0 000 .43c0 .17 0 .31.06.4a21.62 21.62 0 00-2.52-.31L73 14.87h-2.11v7zm13.98-6.98c1.13 0 2.82 0 5.06.11.61 0 1.49.11 2.64.26v-.58a1.33 1.33 0 010-.26 3 3 0 010-.41c0-.14 0-.29.06-.43H82.41v19h2.46v-17.7zm13.96 7.02h4.33c.34 0 .8 0 1.4-.07l1.08-.06v.21a2.85 2.85 0 000 .29 1.22 1.22 0 000 .22 1.43 1.43 0 000 .23v.56c-.27 0-.66 0-1.19-.08s-1-.07-1.3-.07h-4.32v8.16c1.13 0 2.82 0 5-.1a20.13 20.13 0 002.57-.24 1.38 1.38 0 010 .25v.32a1.33 1.33 0 000 .26 2 2 0 000 .41v.43H96.36v-19h9.91c0 .11 0 .25-.05.41a2.47 2.47 0 000 .44 2.35 2.35 0 000 .42c0 .18 0 .32.05.41a19.42 19.42 0 00-2.52-.31l-2.8-.06h-2.12v7zm40.65 10.84l-.75-.06h-1.46l-.72.05c-.23-.69-.52-1.49-.86-2.4s-.67-1.79-1-2.64-.7-1.68-1-2.51h-7.1c-1.4 3.52-2.33 6-2.77 7.54h-2.02l8.74-19.51h.65l8.35 19.54zm-9.36-15.88L127.06 24h6.14l-3.09-7.15zm14.48 15.88h-.65a4.64 4.64 0 00-.57 0 5.36 5.36 0 00-.63 0h-.6v-19.1h5a16.63 16.63 0 014.29.44 3.86 3.86 0 012.23 1.44 4.67 4.67 0 01.67 2.71 6 6 0 01-.37 2.19 4.48 4.48 0 01-1.1 1.57 6.17 6.17 0 01-1.86 1.17 14.82 14.82 0 01-2.63.76 8.12 8.12 0 01-1.63.13h-2.15v8.77zm0-9.87c.53.05 1 .07 1.28.07s.77 0 1.49-.06a5 5 0 003.24-1.42 4.28 4.28 0 001.17-3.1 4.24 4.24 0 00-.33-1.75 3 3 0 00-1-1.27 3.79 3.79 0 00-1.78-.58c-.39 0-1.11-.06-2.15-.06h-1.87v8.14zm19.99 9.95h-.62a5.67 5.67 0 00-.6 0 6 6 0 00-.62 0h-.61v-17.8a57.64 57.64 0 00-6.12.32v-.43a2.61 2.61 0 000-.4 2.82 2.82 0 000-.42 4 4 0 010-.43h14.41v1.1a1.87 1.87 0 000 .32v.26a48.37 48.37 0 00-5.84-.34v17.81zm9.21-.04h.83c.41-.52.9-1.09 1.46-1.7l12.08-13.34h.28v15.06l.41-.06h.78c.18 0 .3 0 .36.06v-19.1h-1.08l-13.28 14.36h-.28V13.69a3.35 3.35 0 00-.4.05 2.36 2.36 0 01-.37 0h-.78v19.11zm36.01-1.22a10.94 10.94 0 01-6.18 1.59 11.71 11.71 0 01-4.1-.7 8.38 8.38 0 01-5.06-5.19 12.23 12.23 0 01-.67-4.12 9.86 9.86 0 011.4-5.28 8.76 8.76 0 013.81-3.41 12.14 12.14 0 015.36-1.16 14.94 14.94 0 016 1.29 13.63 13.63 0 00-.59 2.15h-.19a5.92 5.92 0 00-1-.92 7.68 7.68 0 00-1.9-1 6.51 6.51 0 00-2.42-.46 7.67 7.67 0 00-3.32.69 6.82 6.82 0 00-2.46 1.95 8.53 8.53 0 00-1.48 2.83 11.23 11.23 0 00-.5 3.42 11 11 0 00.94 4.64 7 7 0 006.56 4.17 8 8 0 003.5-.75 12.3 12.3 0 002.43-1.5l-.14 1.76z" fill="#005baa"/><path d="M22.81 0a22.81 22.81 0 1022.81 22.81A22.81 22.81 0 0022.81 0zm0 44.37a21.56 21.56 0 1121.56-21.56 21.56 21.56 0 01-21.56 21.56z" fill="#005baa" fill-rule="evenodd"/><g clip-path="url(#a)"><path d="M22.63 4.18zm0 17.73h.88A15.64 15.64 0 0037.68 11l.21-1a21.54 21.54 0 00-14.42-5.82h-.88A21.68 21.68 0 007.8 10.59v1.3c.11-.13.22-.26.34-.38a15.63 15.63 0 0014.45 10.4zm2.1 5.41l.23.15c.14.07 1.59.9 1.59 3.68a10 10 0 01-.22 2 2.78 2.78 0 01.06.58 3.75 3.75 0 01-3.72 3.75 3.71 3.71 0 01-3-1.52c0 2.08.94 2.71 1 2.74.93.85 2.44.59 3.35.32a.77.77 0 01.77-.6.76.76 0 01.72.79 1 1 0 010 .2 6.61 6.61 0 00-.82-12.12zM18.76 36a9.48 9.48 0 01.24-1.75 3.31 3.31 0 010-.55 3.71 3.71 0 016.71-2.22c.11-2.51-1.06-3.19-1.12-3.22-1-.81-2.46-.48-3.36-.16a.75.75 0 11-1.44-.39A6.61 6.61 0 0021.32 40a2.84 2.84 0 01-1.12-.6c-.09-.01-1.44-.82-1.44-3.4zm19.53-2.22a18.39 18.39 0 00-15.48-8.53C15.47 25.15 11 29 7.46 33.42c-.13-.16-.26-.33-.4-.49v1.36a21.61 21.61 0 0031.58.44v-1.31zM22.54 41A7.47 7.47 0 1130 33.55 7.45 7.45 0 0122.54 41z" fill="#005baa"/></g><path d="M22.83 16.14a11 11 0 0010.88-9.25c-.29-.16-.59-.31-.89-.46a10.1 10.1 0 01-10 8.77 10 10 0 01-10-8.56c-.3.15-.59.31-.88.48a11 11 0 0010.85 9z" fill="#fff" fill-rule="evenodd"/><path d="M23.37 22V4.19h-.94V22z" fill="#fff" fill-rule="evenodd"/><path fill="#0054a6" d="M22.43 15.18h.95v.95h-.95z"/><path d="M22.81 3.52A19.29 19.29 0 1042.1 22.81 19.28 19.28 0 0022.81 3.52zm0 37.78A18.49 18.49 0 1141.3 22.81 18.49 18.49 0 0122.81 41.3z" fill="#005baa" fill-rule="evenodd"/><path d="M45.55 45.84a2.44 2.44 0 01-2.06-1 3.91 3.91 0 01-.73-2.42 3.5 3.5 0 01.83-2.42 2.67 2.67 0 012.07-.91 2.51 2.51 0 012.08 1 3.73 3.73 0 01.76 2.4 3.57 3.57 0 01-.83 2.44 2.68 2.68 0 01-2.12.91zm.07-.83a1.59 1.59 0 001.28-.62 3.07 3.07 0 00.51-2 2.89 2.89 0 00-.53-1.93 1.65 1.65 0 00-1.26-.6 1.6 1.6 0 00-1.26.6 3 3 0 00-.51 1.92 3.05 3.05 0 00.51 2 1.59 1.59 0 001.26.62zm6.86 2.82v-2.16a3.32 3.32 0 01-2.25-1 3.1 3.1 0 01-.85-2.23 2.94 2.94 0 01.88-2.23 3.52 3.52 0 012.23-.94V37.2h.86v2.08a3.44 3.44 0 012.23.94 3 3 0 01.88 2.22 3.14 3.14 0 01-.86 2.23 3.32 3.32 0 01-2.26 1v2.16zm0-7.81a2.23 2.23 0 00-2 2.47 2.18 2.18 0 002 2.42zm.85 4.89a2.21 2.21 0 002-2.43 2.22 2.22 0 00-2-2.46zm5.27.77v-5.62h-1.77v-.78h4.55v.77H59.6v5.62zm8.4.01h-1a11 11 0 01-.12-1.15 2.29 2.29 0 01-2.24 1.33 2.23 2.23 0 01-1.64-.58 1.84 1.84 0 01-.57-1.37 1.92 1.92 0 01.82-1.6 4.8 4.8 0 012.8-.62h.85a3.61 3.61 0 00-.12-1.1.94.94 0 00-.5-.54 2 2 0 00-1-.21c-1 0-1.6.39-1.77 1.15l-.91-.16c.22-1.17 1.16-1.76 2.82-1.76a2.52 2.52 0 011.88.59 2.94 2.94 0 01.55 2v2.71a5.39 5.39 0 00.15 1.31zm-1.09-3.2h-.93a3.72 3.72 0 00-1.83.38 1.25 1.25 0 00-.63 1.13 1.06 1.06 0 00.35.8 1.41 1.41 0 001 .33 1.86 1.86 0 001.48-.65 2.21 2.21 0 00.58-1.53c.01-.16.01-.3 0-.46zm1.98 3.2L70 39.3h1.2l2.06 6.39h-1l-1.6-5.18h-.2l-1.62 5.18zm6.26 0V39.3h1v2.46h1.9a1.85 1.85 0 011.49.59 2.24 2.24 0 01.46 1.49 1.77 1.77 0 01-.54 1.37 2.1 2.1 0 01-1.46.49zm1-.77h1.68a1 1 0 001.12-1.1c0-.85-.37-1.27-1.12-1.27h-1.68zm4.95.78v-6.39h1.61l1.9 5.52 2-5.51h1.52v6.39h-1v-5.52h-.08l-2 5.52H83l-2-5.62v5.61zm11.04.19a2.41 2.41 0 01-2-1 3.89 3.89 0 01-.73-2.42 3.46 3.46 0 01.83-2.43 2.67 2.67 0 012.06-.92 2.56 2.56 0 012.09 1 3.73 3.73 0 01.76 2.4 3.59 3.59 0 01-.88 2.48 2.69 2.69 0 01-2.13.89zm.08-.82a1.62 1.62 0 001.28-.62 3.07 3.07 0 00.51-2 2.83 2.83 0 00-.54-1.93 1.61 1.61 0 00-1.25-.6 1.59 1.59 0 00-1.26.6 2.94 2.94 0 00-.51 1.92 3.05 3.05 0 00.51 2 1.59 1.59 0 001.26.63zm3.39.65l2.12-6.39h1.2l2.06 6.4H99l-1.6-5.19h-.19l-1.62 5.18zm8.59.19a2.42 2.42 0 01-2-1 3.91 3.91 0 01-.74-2.42 3.51 3.51 0 01.84-2.44 2.66 2.66 0 012.06-.91 2.53 2.53 0 012.09 1 3.79 3.79 0 01.76 2.4 3.62 3.62 0 01-.83 2.44 2.7 2.7 0 01-2.18.93zm.08-.83a1.53 1.53 0 001.27-.62 3.07 3.07 0 00.52-2 2.83 2.83 0 00-.54-1.93 1.65 1.65 0 00-1.26-.6 1.57 1.57 0 00-1.25.61 2.93 2.93 0 00-.52 1.91 3.09 3.09 0 00.51 2 1.63 1.63 0 001.27.63zm4.18.66v-6.4h3.71v.77h-2.72v5.62zm5.71-.6v.6h-1v-6.39h1v4.82c.27-.44.54-.83.82-1.2l2.2-2.97v-.69h1v6.4h-1v-4.64a8.67 8.67 0 01-.83 1.19zm9.11.61V43a2.65 2.65 0 01-1.75.63 2.48 2.48 0 01-1.36-.38 1.42 1.42 0 01-.59-1.29v-2.6h1v2.38c0 .72.4 1.08 1.21 1.08a2.54 2.54 0 001.51-.43v-3h1v6.4zm7.14-1.89l.92.19a2.55 2.55 0 01-1 1.35 2.83 2.83 0 01-1.73.54 2.68 2.68 0 01-2.11-.94 3.46 3.46 0 01-.8-2.41 3.56 3.56 0 01.84-2.47 2.72 2.72 0 012.12-.94 2.55 2.55 0 012 .87 3.88 3.88 0 01.78 2.6h-4.64a2.47 2.47 0 00.61 2 2 2 0 001.28.51 1.77 1.77 0 001.73-1.3zm-.06-2a2.82 2.82 0 00-.17-.95 1.6 1.6 0 00-.56-.71 1.49 1.49 0 00-.94-.3 1.69 1.69 0 00-1.26.53 2.2 2.2 0 00-.58 1.43zm5.99 1.67l.9.16a2.85 2.85 0 01-.85 1.66 2.54 2.54 0 01-3.64-.38 4 4 0 01-.69-2.39 3.87 3.87 0 01.73-2.42 2.38 2.38 0 012-1 2.3 2.3 0 011.68.62 2.82 2.82 0 01.78 1.62l-.9.17Q135.1 40 133.82 40a1.39 1.39 0 00-1.26.7 3.28 3.28 0 00-.45 1.81 3.53 3.53 0 00.44 1.91 1.37 1.37 0 001.23.68c.83.02 1.35-.51 1.57-1.57zm5.14-1.9l2.25 4.15h-1.13l-1.85-3.5-1.31 1.52v2h-1v-6.42h1v2.42c0 .45 0 .8-.05 1a7.67 7.67 0 01.6-.8l2.36-2.64h1.09zm3.87 3.54v.61h-1v-6.39h1v3.35c0 .47 0 1-.05 1.47.28-.44.55-.84.83-1.2l2.24-2.93v-.69h1v6.4h-1v-4.68a9.06 9.06 0 01-.83 1.18zm6.76.01v.61h-1V39.4h1v3.35c0 .47 0 1-.05 1.47a13.2 13.2 0 01.83-1.2l2.24-2.93v-.69h1v6.39h-1v-3.21c0-.59 0-1.08.05-1.46a11.16 11.16 0 01-.83 1.18zm-.41-8.41h.72a1 1 0 001.15.86c.68 0 1.08-.28 1.19-.86h.72a1.69 1.69 0 01-1.81 1.62 1.75 1.75 0 01-1.97-1.62zm11.96 4.89l2.25 4.15h-1.12l-1.86-3.51-1.3 1.53v2h-1v-6.42h1v2.41a8.7 8.7 0 010 1 7.67 7.67 0 01.63-.81l2.37-2.64h1.09zm5.65 4.34a2.43 2.43 0 01-2-1 3.91 3.91 0 01-.73-2.42 3.5 3.5 0 01.83-2.44 2.66 2.66 0 012.06-.91 2.52 2.52 0 012.09 1 3.73 3.73 0 01.76 2.4 3.57 3.57 0 01-.83 2.44 2.7 2.7 0 01-2.18.93zm.08-.82a1.57 1.57 0 001.27-.63 3 3 0 00.52-1.95 2.83 2.83 0 00-.54-1.93 1.62 1.62 0 00-1.26-.6 1.57 1.57 0 00-1.25.61 2.93 2.93 0 00-.51 1.91 3 3 0 00.51 2 1.62 1.62 0 001.26.58zm4.18.64v-6.4h1.62l1.9 5.52 2-5.51h1.53v6.4h-1V40.3h-.08l-2 5.52h-1.08l-2-5.61h-.08v5.61zm8.8.01v-6.4h4.81v6.39h-1v-5.6h-2.82v5.62zm5.79 0l2.12-6.39h1.19l2.06 6.39h-1l-1.6-5.19h-.19l-1.63 5.19zm10.61-1.89l.93.19a2.61 2.61 0 01-1 1.36A2.84 2.84 0 01196 46a2.69 2.69 0 01-2.12-.92 4 4 0 010-4.89 2.73 2.73 0 012.11-.94 2.62 2.62 0 012 .87 4 4 0 01.78 2.6h-4.65a2.49 2.49 0 00.6 1.95 2 2 0 001.29.51 1.75 1.75 0 001.77-1.24zm-.05-1.94a2.83 2.83 0 00-.18-1 1.64 1.64 0 00-.55-.71 1.6 1.6 0 00-.95-.3 1.66 1.66 0 00-1.25.54 2.2 2.2 0 00-.59 1.43zm5.42-.29l2.25 4.15h-1.12l-1.86-3.51-1.31 1.53v2h-1v-6.42h1v2.41a8.58 8.58 0 01-.05 1 7.67 7.67 0 01.63-.81l2.37-2.64h1.08zm6.78 1.91l.9.16a2.9 2.9 0 01-.84 1.66 2.55 2.55 0 01-3.65-.38 4 4 0 01-.69-2.38 3.9 3.9 0 01.74-2.43 2.36 2.36 0 012-1 2.25 2.25 0 011.67.63 2.76 2.76 0 01.78 1.61l-.9.17c-.16-1.06-.67-1.59-1.52-1.59a1.44 1.44 0 00-1.27.7 3.39 3.39 0 00-.44 1.81 3.53 3.53 0 00.43 1.91 1.42 1.42 0 001.24.69c.81.04 1.33-.49 1.55-1.56z" fill="#005baa"/></svg>