<svg data-name="Layer 1" xmlns="http://www.w3.org/2000/svg" viewBox="0 0 168.72 110.61"><defs><clipPath id="a"><path d="M111.74 32.43A27.41 27.41 0 1184.33 5a27.41 27.41 0 0127.41 27.43z" fill="none" clip-rule="evenodd"/></clipPath></defs><path d="M84.31 0a32.48 32.48 0 1032.47 32.48A32.47 32.47 0 0084.31 0zm0 63.17A30.7 30.7 0 11115 32.48a30.69 30.69 0 01-30.69 30.69z" fill="#005baa" fill-rule="evenodd"/><g clip-path="url(#a)"><path d="M84.05 6zM84 31.19h1.26a22.24 22.24 0 0020.23-15.53l.3-1.44A30.71 30.71 0 0085.25 6H84a30.78 30.78 0 00-21 9.13v1.85c.17-.18.32-.37.5-.54A22.21 22.21 0 0084 31.19zm3 7.71l.32.21c.2.11 2.26 1.29 2.26 5.24a13.89 13.89 0 01-.31 2.81 4.49 4.49 0 01.08.83 5.29 5.29 0 01-9.55 3.17c-.05 3 1.34 3.85 1.42 3.89l.07.05c1.32 1.22 3.46.85 4.77.46a1.07 1.07 0 012.12.27 2 2 0 01-.06.28A9.41 9.41 0 0087 38.9zm-8.47 12.4a13.08 13.08 0 01.28-2.53 5 5 0 01-.06-.78 5.32 5.32 0 015.3-5.34 5.26 5.26 0 014.25 2.18c.17-3.58-1.5-4.54-1.59-4.6h-.11c-1.37-1.16-3.5-.69-4.78-.24a1.07 1.07 0 01-1 .9 1.09 1.09 0 01-1.08-1.09.89.89 0 01.07-.36A9.42 9.42 0 0082.18 57a4.09 4.09 0 01-1.59-.87c-.13-.05-2.06-1.2-2.06-4.83zm27.82-3.15c-4.71-6.95-11.83-12-22-12.16-10.46-.19-16.84 5.34-21.86 11.59-.19-.23-.37-.47-.57-.7v1.94a30.77 30.77 0 0045 .63v-1.87zM83.92 58.41a10.64 10.64 0 1110.56-10.64 10.61 10.61 0 01-10.56 10.64z" fill="#005baa"/></g><path d="M84.33 23A15.72 15.72 0 0099.82 9.81q-.61-.35-1.26-.66a14.39 14.39 0 01-14.23 12.49A14.28 14.28 0 0170.14 9.46c-.42.21-.84.44-1.25.68A15.61 15.61 0 0084.33 23z" fill="#fff" fill-rule="evenodd"/><path d="M85.1 31.27V6h-1.34v25.27z" fill="#fff" fill-rule="evenodd"/><path fill="#0054a6" d="M83.76 21.62h1.35v1.35h-1.35z"/><path d="M84.31 5a27.47 27.47 0 1027.47 27.47A27.46 27.46 0 0084.31 5zm0 53.79a26.33 26.33 0 1126.32-26.32A26.32 26.32 0 0184.31 58.8z" fill="#005baa" fill-rule="evenodd"/><path d="M18.68 97.58l-.78-.06h-2.26c-.25-.71-.54-1.54-.89-2.48s-.7-1.86-1.06-2.74-.71-1.74-1.07-2.6L9 81.13l-3.74 8.61C3.8 93.39 2.85 96 2.38 97.56l-.57-.06h-.49a4.53 4.53 0 00-.56 0H.3l9-20.22h.7l8.65 20.24zm5.6-11.17h4.48c.35 0 .84 0 1.45-.07l1.13-.07a.81.81 0 000 .22 1.54 1.54 0 000 .3v.77a2 2 0 000 .27c-.28 0-.69 0-1.24-.08s-1-.07-1.34-.07h-4.48v8.45c1.18 0 2.93 0 5.23-.1a20.11 20.11 0 002.67-.26v.6a1.42 1.42 0 000 .27 3.19 3.19 0 000 .42 3.44 3.44 0 010 .45H21.72v-19.7H32c0 .12 0 .26-.06.42a2.66 2.66 0 000 .45 2.74 2.74 0 000 .45c0 .18 0 .32.05.42a20.42 20.42 0 00-2.61-.33l-2.9-.06h-2.19v7.25zm14.48-7.23c1.17 0 2.92 0 5.24.12a25.8 25.8 0 012.74.26v-.87a3.19 3.19 0 010-.42c0-.15 0-.3.05-.44H36.27v19.7h2.55V79.19zm14.46 7.27h4.48c.35 0 .83 0 1.45-.07l1.12-.07a1.22 1.22 0 010 .22v.3a1.31 1.31 0 000 .23 1.52 1.52 0 000 .24v.57c-.28 0-.68 0-1.23-.07s-1-.08-1.34-.08h-4.48v8.45c1.18 0 2.93 0 5.24-.11a19.78 19.78 0 002.66-.25 1.58 1.58 0 010 .26v.34a1.38 1.38 0 000 .26 2.12 2.12 0 000 .43c0 .15 0 .3.05.44h-10.5v-19.7H61c0 .12 0 .26-.06.43a2.5 2.5 0 000 .89c0 .18 0 .32.06.42a20.87 20.87 0 00-2.61-.32l-2.9-.06h-2.26v7.25zM95.33 97.5l-.78-.06h-2.26a133.652 133.652 0 00-1.94-5.22c-.35-.88-.72-1.74-1.09-2.6h-7.35q-2.18 5.52-2.91 7.86l-.56-.06h-1.05c-.23 0-.39 0-.47.06l9-20.22h.68l8.73 20.24zm-9.71-16.45l-3.16 7.4h6.37l-3.21-7.41zm15.01 16.45h-.68a4.87 4.87 0 00-.58 0h-.67l-.61.06V77.77h5.18a17.27 17.27 0 014.45.45 4 4 0 012.31 1.49 4.91 4.91 0 01.7 2.81 6.17 6.17 0 01-.39 2.27 4.56 4.56 0 01-1.17 1.67 6.45 6.45 0 01-1.91 1.17 14.37 14.37 0 01-2.73.78 7.86 7.86 0 01-1.68.14h-2.23v8.95zm0-10.22c.56 0 1 .07 1.33.07s.8 0 1.54-.06a5.22 5.22 0 003.36-1.47 4.43 4.43 0 001.21-3.21 4.23 4.23 0 00-.34-1.82 3.17 3.17 0 00-1.07-1.31 4 4 0 00-1.85-.6c-.4 0-1.15-.06-2.23-.06h-1.94v8.43zm20.7 10.3h-.65a5.67 5.67 0 00-.61 0h-1.27V79.13a61.77 61.77 0 00-6.33.34v-.44a3.32 3.32 0 000-.43 3.21 3.21 0 000-.42 4.21 4.21 0 010-.45h14.92v1.14a2.11 2.11 0 000 .33v.27a51.79 51.79 0 00-6-.35v18.44zm9.54-.04h.86c.43-.54.93-1.13 1.51-1.76L145.75 82h.25v15.59l.42-.06a3.21 3.21 0 01.39 0 2.56 2.56 0 01.43 0h.37V77.75h-1.12l-13.72 14.91h-.29v-14.9a3.65 3.65 0 00-.42 0 2.43 2.43 0 01-.38 0h-.81v19.78zm37.29-1.26a11.2 11.2 0 01-6.4 1.64 12 12 0 01-4.24-.72 8.68 8.68 0 01-5.24-5.37 12.38 12.38 0 01-.69-4.27 10.12 10.12 0 011.41-5.47 9.23 9.23 0 014-3.54 12.54 12.54 0 015.55-1.19 15.39 15.39 0 016.21 1.33 14.48 14.48 0 00-.6 2.23h-.2a6 6 0 00-1.06-1 8.06 8.06 0 00-2-1.06 6.54 6.54 0 00-2.5-.47 7.87 7.87 0 00-3.44.71 7 7 0 00-2.51 2 8.89 8.89 0 00-1.5 2.94 11.82 11.82 0 00-.52 3.55 11.15 11.15 0 001 4.8 7.19 7.19 0 006.77 4.33 8.25 8.25 0 003.62-.78 13.12 13.12 0 002.52-1.55l-.15 1.82zM2.8 108.61a2.41 2.41 0 01-2.06-1A3.86 3.86 0 010 105.2a3.46 3.46 0 01.84-2.44 2.63 2.63 0 012.07-.91 2.53 2.53 0 012.09 1 3.76 3.76 0 01.76 2.41 3.62 3.62 0 01-.83 2.45 2.69 2.69 0 01-2.13.9zm.07-.82a1.59 1.59 0 001.28-.63 3.07 3.07 0 00.52-2 2.86 2.86 0 00-.54-1.94 1.65 1.65 0 00-1.26-.6 1.57 1.57 0 00-1.26.61 2.94 2.94 0 00-.52 1.92 3.09 3.09 0 00.51 2 1.62 1.62 0 001.27.64zm6.88 2.82v-2.17a3.28 3.28 0 01-2.25-1 3.08 3.08 0 01-.86-2.24 3 3 0 01.88-2.2 3.5 3.5 0 012.24-1v-2h.87v2a3.49 3.49 0 012.24 1 2.92 2.92 0 01.88 2.22 3.14 3.14 0 01-.86 2.24 3.36 3.36 0 01-2.26 1v2.16zm0-7.83a2.24 2.24 0 00-2 2.48 2.19 2.19 0 002 2.42zm.86 4.9a2.19 2.19 0 002-2.43 2.22 2.22 0 00-2-2.47zm5.28.77v-5.63h-1.77V102h4.57v.78h-1.8v5.63zm8.44.01h-1a11.29 11.29 0 01-.12-1.15 2.32 2.32 0 01-2.21 1.33 2.25 2.25 0 01-1.65-.58 1.84 1.84 0 01-.58-1.37 1.93 1.93 0 01.83-1.6 4.69 4.69 0 012.81-.62h.85a3.66 3.66 0 00-.12-1.1.94.94 0 00-.5-.54 2 2 0 00-1-.21c-1 0-1.6.39-1.77 1.16l-.92-.16c.23-1.18 1.17-1.77 2.84-1.77a2.52 2.52 0 011.88.59 2.94 2.94 0 01.55 2v2.73a5.3 5.3 0 00.11 1.29zm-1.09-3.21h-.93a3.53 3.53 0 00-1.84.38 1.25 1.25 0 00-.65 1.13 1.1 1.1 0 00.35.81 1.42 1.42 0 001 .33 1.89 1.89 0 001.48-.66 2.2 2.2 0 00.58-1.53 3.25 3.25 0 00.01-.46zm1.97 3.21l2.12-6.41h1.21l2.06 6.41h-1l-1.6-5.19h-.19l-1.63 5.19zm6.27.01v-6.41h1v2.47h1.9a1.82 1.82 0 011.49.6 2.18 2.18 0 01.5 1.48 1.77 1.77 0 01-.54 1.37 2.08 2.08 0 01-1.45.5zm1-.78h1.68a1 1 0 001.13-1.1c0-.85-.37-1.28-1.12-1.28h-1.69zm4.97.79v-6.41h1.62L41 107.6l2-5.53h1.52v6.41h-1V103h-.08l-2 5.53h-1.06l-2-5.63h-.08v5.63zm11.08.19a2.44 2.44 0 01-2.06-1 3.92 3.92 0 01-.74-2.43 3.49 3.49 0 01.84-2.45 2.7 2.7 0 012.07-.91 2.54 2.54 0 012.09 1 3.73 3.73 0 01.76 2.4 3.55 3.55 0 01-.83 2.45 2.67 2.67 0 01-2.13.94zm.08-.82a1.58 1.58 0 001.27-.63 3 3 0 00.52-2 2.83 2.83 0 00-.54-1.93 1.65 1.65 0 00-1.26-.6 1.62 1.62 0 00-1.26.6 3 3 0 00-.51 1.92 3 3 0 00.51 2 1.64 1.64 0 001.27.64zm3.39.65l2.12-6.41h1.2l2.07 6.41h-1l-1.6-5.2h-.2l-1.62 5.2zm8.62.19a2.46 2.46 0 01-2.06-1 3.91 3.91 0 01-.73-2.42 3.51 3.51 0 01.83-2.45 2.69 2.69 0 012.07-.91 2.52 2.52 0 012.09 1 3.78 3.78 0 01.77 2.41 3.65 3.65 0 01-.83 2.45 2.72 2.72 0 01-2.14.92zm.08-.83a1.6 1.6 0 001.28-.63 3.07 3.07 0 00.51-2 2.81 2.81 0 00-.53-1.94 1.65 1.65 0 00-1.27-.6 1.57 1.57 0 00-1.25.61 2.88 2.88 0 00-.52 1.92 3.09 3.09 0 00.51 2 1.61 1.61 0 001.27.64zm4.19.65v-6.41h3.72v.79H65.9v5.63zm5.73-.6v.61h-1v-6.41h1v4.83c.27-.43.55-.83.83-1.2l2.24-2.94v-.69h1v6.41h-1v-4.69a9 9 0 01-.83 1.19zm9.14.62v-2.75a2.63 2.63 0 01-1.76.63 2.54 2.54 0 01-1.37-.38 1.44 1.44 0 01-.59-1.29v-2.63h1v2.39c0 .72.4 1.08 1.21 1.08a2.5 2.5 0 001.51-.44v-3h1v6.41zm7.16-1.9l.92.19a2.61 2.61 0 01-1 1.36 2.85 2.85 0 01-1.73.54 2.72 2.72 0 01-2.13-.93 4 4 0 010-4.9 2.72 2.72 0 012.12-.94 2.55 2.55 0 012 .87 3.9 3.9 0 01.78 2.6h-4.59a2.47 2.47 0 00.61 2 2 2 0 001.29.51 1.77 1.77 0 001.73-1.3zm-.06-1.95a2.83 2.83 0 00-.18-1 1.58 1.58 0 00-.55-.71 1.54 1.54 0 00-.95-.3 1.72 1.72 0 00-1.26.53 2.17 2.17 0 00-.58 1.44zm6 1.62l.9.16a2.84 2.84 0 01-.84 1.66 2.56 2.56 0 01-3.66-.38 4 4 0 01-.69-2.39 3.92 3.92 0 01.74-2.43 2.35 2.35 0 012-1 2.3 2.3 0 011.67.62 2.77 2.77 0 01.79 1.62l-.9.17c-.17-1.06-.68-1.59-1.54-1.59a1.42 1.42 0 00-1.27.7 3.4 3.4 0 00-.44 1.82 3.44 3.44 0 00.44 1.91 1.38 1.38 0 001.24.69c.82.04 1.34-.49 1.56-1.56zm5.14-1.91l2.25 4.17h-1.1L97.29 105 96 106.57v2h-1v-6.41h1v2.42a8.58 8.58 0 010 1 7.67 7.67 0 01.63-.81l2.38-2.65h.99zm3.9 3.61v.61h-1v-6.42h1v4.83a11.46 11.46 0 01.83-1.2l2.24-2.94v-.69h1v6.41h-1v-4.69a9 9 0 01-.83 1.19zm6.78 0v.61h-1v-6.42h1v3.37c0 .47 0 1-.05 1.47.28-.44.55-.84.83-1.2l2.25-2.94v-.69h1v6.41h-1v-4.69a11 11 0 01-.83 1.19zm-.41-8.44h.73a1 1 0 001.15.87 1.05 1.05 0 001.2-.87h.73a1.71 1.71 0 01-1.82 1.63 1.76 1.76 0 01-1.99-1.67zm12 4.86l2.25 4.16h-1.12l-1.86-3.51-1.31 1.53v2h-1v-6.41h1v2.42a8.7 8.7 0 010 1 7.67 7.67 0 01.63-.81l2.38-2.65h1.09zm5.67 4.35a2.44 2.44 0 01-2.06-1 4 4 0 01-.74-2.43 3.49 3.49 0 01.84-2.45 2.67 2.67 0 012.07-.91 2.53 2.53 0 012.09 1 3.77 3.77 0 01.76 2.41 3.6 3.6 0 01-.83 2.45 2.7 2.7 0 01-2.13.93zm.08-.83a1.58 1.58 0 001.27-.63 3 3 0 00.52-2 2.83 2.83 0 00-.54-1.93 1.63 1.63 0 00-1.26-.61 1.57 1.57 0 00-1.26.61 3.93 3.93 0 000 3.91 1.6 1.6 0 001.25.65zm4.19.65v-6.41h1.62l1.9 5.54 2-5.53h1.52v6.41h-1v-5.54h-.08l-2 5.54h-1.08l-2-5.63H131v5.63zm8.79.01v-6.41h4.83v6.41h-1V103H140v5.64zm5.84.01l2.16-6.41h1.2l2.07 6.42h-1l-1.6-5.2h-.2l-1.62 5.2zm10.64-1.9l.93.2a2.65 2.65 0 01-1 1.36 2.92 2.92 0 01-1.74.53 2.68 2.68 0 01-2.12-.93 4 4 0 010-4.9 2.75 2.75 0 012.12-.94 2.55 2.55 0 012 .87 3.93 3.93 0 01.78 2.61h-4.66a2.49 2.49 0 00.61 2 2 2 0 001.28.51 1.76 1.76 0 001.8-1.31zm0-1.94a2.83 2.83 0 00-.18-1 1.61 1.61 0 00-.56-.72 1.49 1.49 0 00-.94-.3 1.66 1.66 0 00-1.26.54 2.2 2.2 0 00-.59 1.43zm5.39-.3l2.25 4.16H162l-1.86-3.51-1.31 1.53v2h-1v-6.41h1v2.42a8.7 8.7 0 01-.05 1 7.67 7.67 0 01.63-.81l2.38-2.65h1.09zm6.8 1.92l.9.16a2.88 2.88 0 01-.85 1.67 2.31 2.31 0 01-1.63.6 2.34 2.34 0 01-2-1 4 4 0 01-.69-2.4 3.92 3.92 0 01.73-2.43 2.39 2.39 0 012-1 2.27 2.27 0 011.68.63 2.76 2.76 0 01.78 1.61l-.9.17q-.25-1.59-1.53-1.59a1.44 1.44 0 00-1.27.7 3.34 3.34 0 00-.45 1.82 3.59 3.59 0 00.44 1.92 1.4 1.4 0 001.24.68c.8.07 1.33-.47 1.55-1.54z" fill="#005baa"/></svg>