<svg data-name="Layer 1" xmlns="http://www.w3.org/2000/svg" viewBox="0 0 467.81 467.79"><path d="M466.93 43.04c-2-5.34-3.46-10.84-6.25-15.84a5.19 5.19 0 01-.66-2.12A52.52 52.52 0 00415.27 0H293.81a61 61 0 00-43.41 18L7.61 260.8a26 26 0 000 36.76l162.67 162.63a26 26 0 0036.76 0L449.83 217.4a61 61 0 0018-43.4V52.53a53 53 0 00-.9-9.49zM438.1 205.67L195.31 448.46a9.41 9.41 0 01-13.3 0L19.34 285.8a9.42 9.42 0 010-13.3l242.8-242.79a44.48 44.48 0 0131.67-13.12h121.46a36 36 0 0131.62 18.86l-.6.34a4.93 4.93 0 011.56 2.75 5 5 0 01.41 1.28 5.38 5.38 0 01.84 2.74 5.62 5.62 0 01.37 1.57 4.67 4.67 0 01.82 2.78v2.18a5.71 5.71 0 010 4l.94-.61V174a44.5 44.5 0 01-13.13 31.67z"/><path d="M422.59 71.06c-2.92-5.71-6.11-11.28-9.41-16.79a34.93 34.93 0 109.41 16.79zm-21 20.92a18.26 18.26 0 11-4.24-28.93 5.21 5.21 0 01.52.28c.46.27.91.56 1.36.87a4.37 4.37 0 012.4 2.16 5.9 5.9 0 01.42.6 5.15 5.15 0 01.8 1.88 5 5 0 01.57 1.37 4.6 4.6 0 01.25.61 5 5 0 01.64 1.32 5.32 5.32 0 01.47.92 4.71 4.71 0 01.67 1.3 3 3 0 01.21.35 3.52 3.52 0 01.28.59 2.6 2.6 0 01.1.25l.06.15v.12a5.26 5.26 0 01.29 1.51v.09a5.49 5.49 0 01.32 1.55l.18-.1a18.14 18.14 0 01-5.26 13.11zM247.16 124.8a8.3 8.3 0 00-8.29 8.3v175.14a8.3 8.3 0 0016.59 0V133.06a8.31 8.31 0 00-8.3-8.26zm-37.93 71.21a34.83 34.83 0 1010.21 24.64 34.89 34.89 0 00-10.21-24.64zm-11.73 37.54a18.24 18.24 0 115.35-12.9 18.27 18.27 0 01-5.35 12.9zm136.86-37.54a34.83 34.83 0 100 49.27 34.89 34.89 0 000-49.27zm-11.73 37.54a18.24 18.24 0 110-25.81 18.27 18.27 0 010 25.81z"/><path d="M413.35 54.45a34.82 34.82 0 100 49.27 34.87 34.87 0 000-49.27zm-11.73 37.53a18.25 18.25 0 11-4-28.79l.31.18c.43.26.86.54 1.27.83a4.4 4.4 0 012.24 1.83l.15.15a18.27 18.27 0 01.03 25.8z"/></svg>