<?xml version="1.0" encoding="utf-8"?><svg xmlns="http://www.w3.org/2000/svg" xmlns:xlink="http://www.w3.org/1999/xlink"><symbol viewBox="0 0 12 8" id="arrow-down" xmlns="http://www.w3.org/2000/svg"><path data-name="Многоугольник 1 kопировать" d="M12 0L0 .09 6.1 8z" fill="#fafafa" fill-rule="evenodd"/></symbol><symbol viewBox="0 0 12 8" id="arrow-up" xmlns="http://www.w3.org/2000/svg"><path data-name="Многоугольник 1" d="M12 8L0 7.91 6.1 0z" fill-rule="evenodd"/></symbol><symbol viewBox="0 0 477.175 477.175" id="back" xmlns="http://www.w3.org/2000/svg"><path d="M145.188 238.575l215.5-215.5c5.3-5.3 5.3-13.8 0-19.1s-13.8-5.3-19.1 0l-225.1 225.1c-5.3 5.3-5.3 13.8 0 19.1l225.1 225c2.6 2.6 6.1 4 9.5 4s6.9-1.3 9.5-4c5.3-5.3 5.3-13.8 0-19.1l-215.4-215.5z"/></symbol><symbol viewBox="0 0 11 11" id="dot" xmlns="http://www.w3.org/2000/svg"><circle data-name="Эллипс 6 kопировать 4" cx="5.5" cy="5.5" r="5.5" fill="#fff"/></symbol><symbol viewBox="0 0 430.114 430.114" id="location" xmlns="http://www.w3.org/2000/svg"><path d="M356.208 107.051c-1.531-5.738-4.64-11.852-6.94-17.205C321.746 23.704 261.611 0 213.055 0 148.054 0 76.463 43.586 66.905 133.427v18.355c0 .766.264 7.647.639 11.089 5.358 42.816 39.143 88.32 64.375 131.136 27.146 45.873 55.314 90.999 83.221 136.106 17.208-29.436 34.354-59.259 51.17-87.933 4.583-8.415 9.903-16.825 14.491-24.857 3.058-5.348 8.9-10.696 11.569-15.672 27.145-49.699 70.838-99.782 70.838-149.104v-20.262c.001-5.347-6.627-24.081-7-25.234zm-141.963 92.142c-19.107 0-40.021-9.554-50.344-35.939-1.538-4.2-1.414-12.617-1.414-13.388v-11.852c0-33.636 28.56-48.932 53.406-48.932 30.588 0 54.245 24.472 54.245 55.06 0 30.587-25.305 55.051-55.893 55.051z"/></symbol><symbol viewBox="0 0 168.72 110.61" id="logo" xmlns="http://www.w3.org/2000/svg"><defs><clipPath id="fa"><path d="M111.74 32.43A27.41 27.41 0 1184.33 5a27.41 27.41 0 0127.41 27.43z" fill="none" clip-rule="evenodd"/></clipPath></defs><path d="M84.31 0a32.48 32.48 0 1032.47 32.48A32.47 32.47 0 0084.31 0zm0 63.17A30.7 30.7 0 11115 32.48a30.69 30.69 0 01-30.69 30.69z" fill="#005baa" fill-rule="evenodd"/><g clip-path="url(#fa)"><path d="M84.05 6zM84 31.19h1.26a22.24 22.24 0 0020.23-15.53l.3-1.44A30.71 30.71 0 0085.25 6H84a30.78 30.78 0 00-21 9.13v1.85c.17-.18.32-.37.5-.54A22.21 22.21 0 0084 31.19zm3 7.71l.32.21c.2.11 2.26 1.29 2.26 5.24a13.89 13.89 0 01-.31 2.81 4.49 4.49 0 01.08.83 5.29 5.29 0 01-9.55 3.17c-.05 3 1.34 3.85 1.42 3.89l.07.05c1.32 1.22 3.46.85 4.77.46a1.07 1.07 0 012.12.27 2 2 0 01-.06.28A9.41 9.41 0 0087 38.9zm-8.47 12.4a13.08 13.08 0 01.28-2.53 5 5 0 01-.06-.78 5.32 5.32 0 015.3-5.34 5.26 5.26 0 014.25 2.18c.17-3.58-1.5-4.54-1.59-4.6h-.11c-1.37-1.16-3.5-.69-4.78-.24a1.07 1.07 0 01-1 .9 1.09 1.09 0 01-1.08-1.09.89.89 0 01.07-.36A9.42 9.42 0 0082.18 57a4.09 4.09 0 01-1.59-.87c-.13-.05-2.06-1.2-2.06-4.83zm27.82-3.15c-4.71-6.95-11.83-12-22-12.16-10.46-.19-16.84 5.34-21.86 11.59-.19-.23-.37-.47-.57-.7v1.94a30.77 30.77 0 0045 .63v-1.87zM83.92 58.41a10.64 10.64 0 1110.56-10.64 10.61 10.61 0 01-10.56 10.64z" fill="#005baa"/></g><path d="M84.33 23A15.72 15.72 0 0099.82 9.81q-.61-.35-1.26-.66a14.39 14.39 0 01-14.23 12.49A14.28 14.28 0 0170.14 9.46c-.42.21-.84.44-1.25.68A15.61 15.61 0 0084.33 23z" fill="#fff" fill-rule="evenodd"/><path d="M85.1 31.27V6h-1.34v25.27z" fill="#fff" fill-rule="evenodd"/><path fill="#0054a6" d="M83.76 21.62h1.35v1.35h-1.35z"/><path d="M84.31 5a27.47 27.47 0 1027.47 27.47A27.46 27.46 0 0084.31 5zm0 53.79a26.33 26.33 0 1126.32-26.32A26.32 26.32 0 0184.31 58.8z" fill="#005baa" fill-rule="evenodd"/><path d="M18.68 97.58l-.78-.06h-2.26c-.25-.71-.54-1.54-.89-2.48s-.7-1.86-1.06-2.74-.71-1.74-1.07-2.6L9 81.13l-3.74 8.61C3.8 93.39 2.85 96 2.38 97.56l-.57-.06h-.49a4.53 4.53 0 00-.56 0H.3l9-20.22h.7l8.65 20.24zm5.6-11.17h4.48c.35 0 .84 0 1.45-.07l1.13-.07a.81.81 0 000 .22 1.54 1.54 0 000 .3v.77a2 2 0 000 .27c-.28 0-.69 0-1.24-.08s-1-.07-1.34-.07h-4.48v8.45c1.18 0 2.93 0 5.23-.1a20.11 20.11 0 002.67-.26v.6a1.42 1.42 0 000 .27 3.19 3.19 0 000 .42 3.44 3.44 0 010 .45H21.72v-19.7H32c0 .12 0 .26-.06.42a2.66 2.66 0 000 .45 2.74 2.74 0 000 .45c0 .18 0 .32.05.42a20.42 20.42 0 00-2.61-.33l-2.9-.06h-2.19v7.25zm14.48-7.23c1.17 0 2.92 0 5.24.12a25.8 25.8 0 012.74.26v-.87a3.19 3.19 0 010-.42c0-.15 0-.3.05-.44H36.27v19.7h2.55V79.19zm14.46 7.27h4.48c.35 0 .83 0 1.45-.07l1.12-.07a1.22 1.22 0 010 .22v.3a1.31 1.31 0 000 .23 1.52 1.52 0 000 .24v.57c-.28 0-.68 0-1.23-.07s-1-.08-1.34-.08h-4.48v8.45c1.18 0 2.93 0 5.24-.11a19.78 19.78 0 002.66-.25 1.58 1.58 0 010 .26v.34a1.38 1.38 0 000 .26 2.12 2.12 0 000 .43c0 .15 0 .3.05.44h-10.5v-19.7H61c0 .12 0 .26-.06.43a2.5 2.5 0 000 .89c0 .18 0 .32.06.42a20.87 20.87 0 00-2.61-.32l-2.9-.06h-2.26v7.25zM95.33 97.5l-.78-.06h-2.26a133.652 133.652 0 00-1.94-5.22c-.35-.88-.72-1.74-1.09-2.6h-7.35q-2.18 5.52-2.91 7.86l-.56-.06h-1.05c-.23 0-.39 0-.47.06l9-20.22h.68l8.73 20.24zm-9.71-16.45l-3.16 7.4h6.37l-3.21-7.41zm15.01 16.45h-.68a4.87 4.87 0 00-.58 0h-.67l-.61.06V77.77h5.18a17.27 17.27 0 014.45.45 4 4 0 012.31 1.49 4.91 4.91 0 01.7 2.81 6.17 6.17 0 01-.39 2.27 4.56 4.56 0 01-1.17 1.67 6.45 6.45 0 01-1.91 1.17 14.37 14.37 0 01-2.73.78 7.86 7.86 0 01-1.68.14h-2.23v8.95zm0-10.22c.56 0 1 .07 1.33.07s.8 0 1.54-.06a5.22 5.22 0 003.36-1.47 4.43 4.43 0 001.21-3.21 4.23 4.23 0 00-.34-1.82 3.17 3.17 0 00-1.07-1.31 4 4 0 00-1.85-.6c-.4 0-1.15-.06-2.23-.06h-1.94v8.43zm20.7 10.3h-.65a5.67 5.67 0 00-.61 0h-1.27V79.13a61.77 61.77 0 00-6.33.34v-.44a3.32 3.32 0 000-.43 3.21 3.21 0 000-.42 4.21 4.21 0 010-.45h14.92v1.14a2.11 2.11 0 000 .33v.27a51.79 51.79 0 00-6-.35v18.44zm9.54-.04h.86c.43-.54.93-1.13 1.51-1.76L145.75 82h.25v15.59l.42-.06a3.21 3.21 0 01.39 0 2.56 2.56 0 01.43 0h.37V77.75h-1.12l-13.72 14.91h-.29v-14.9a3.65 3.65 0 00-.42 0 2.43 2.43 0 01-.38 0h-.81v19.78zm37.29-1.26a11.2 11.2 0 01-6.4 1.64 12 12 0 01-4.24-.72 8.68 8.68 0 01-5.24-5.37 12.38 12.38 0 01-.69-4.27 10.12 10.12 0 011.41-5.47 9.23 9.23 0 014-3.54 12.54 12.54 0 015.55-1.19 15.39 15.39 0 016.21 1.33 14.48 14.48 0 00-.6 2.23h-.2a6 6 0 00-1.06-1 8.06 8.06 0 00-2-1.06 6.54 6.54 0 00-2.5-.47 7.87 7.87 0 00-3.44.71 7 7 0 00-2.51 2 8.89 8.89 0 00-1.5 2.94 11.82 11.82 0 00-.52 3.55 11.15 11.15 0 001 4.8 7.19 7.19 0 006.77 4.33 8.25 8.25 0 003.62-.78 13.12 13.12 0 002.52-1.55l-.15 1.82zM2.8 108.61a2.41 2.41 0 01-2.06-1A3.86 3.86 0 010 105.2a3.46 3.46 0 01.84-2.44 2.63 2.63 0 012.07-.91 2.53 2.53 0 012.09 1 3.76 3.76 0 01.76 2.41 3.62 3.62 0 01-.83 2.45 2.69 2.69 0 01-2.13.9zm.07-.82a1.59 1.59 0 001.28-.63 3.07 3.07 0 00.52-2 2.86 2.86 0 00-.54-1.94 1.65 1.65 0 00-1.26-.6 1.57 1.57 0 00-1.26.61 2.94 2.94 0 00-.52 1.92 3.09 3.09 0 00.51 2 1.62 1.62 0 001.27.64zm6.88 2.82v-2.17a3.28 3.28 0 01-2.25-1 3.08 3.08 0 01-.86-2.24 3 3 0 01.88-2.2 3.5 3.5 0 012.24-1v-2h.87v2a3.49 3.49 0 012.24 1 2.92 2.92 0 01.88 2.22 3.14 3.14 0 01-.86 2.24 3.36 3.36 0 01-2.26 1v2.16zm0-7.83a2.24 2.24 0 00-2 2.48 2.19 2.19 0 002 2.42zm.86 4.9a2.19 2.19 0 002-2.43 2.22 2.22 0 00-2-2.47zm5.28.77v-5.63h-1.77V102h4.57v.78h-1.8v5.63zm8.44.01h-1a11.29 11.29 0 01-.12-1.15 2.32 2.32 0 01-2.21 1.33 2.25 2.25 0 01-1.65-.58 1.84 1.84 0 01-.58-1.37 1.93 1.93 0 01.83-1.6 4.69 4.69 0 012.81-.62h.85a3.66 3.66 0 00-.12-1.1.94.94 0 00-.5-.54 2 2 0 00-1-.21c-1 0-1.6.39-1.77 1.16l-.92-.16c.23-1.18 1.17-1.77 2.84-1.77a2.52 2.52 0 011.88.59 2.94 2.94 0 01.55 2v2.73a5.3 5.3 0 00.11 1.29zm-1.09-3.21h-.93a3.53 3.53 0 00-1.84.38 1.25 1.25 0 00-.65 1.13 1.1 1.1 0 00.35.81 1.42 1.42 0 001 .33 1.89 1.89 0 001.48-.66 2.2 2.2 0 00.58-1.53 3.25 3.25 0 00.01-.46zm1.97 3.21l2.12-6.41h1.21l2.06 6.41h-1l-1.6-5.19h-.19l-1.63 5.19zm6.27.01v-6.41h1v2.47h1.9a1.82 1.82 0 011.49.6 2.18 2.18 0 01.5 1.48 1.77 1.77 0 01-.54 1.37 2.08 2.08 0 01-1.45.5zm1-.78h1.68a1 1 0 001.13-1.1c0-.85-.37-1.28-1.12-1.28h-1.69zm4.97.79v-6.41h1.62L41 107.6l2-5.53h1.52v6.41h-1V103h-.08l-2 5.53h-1.06l-2-5.63h-.08v5.63zm11.08.19a2.44 2.44 0 01-2.06-1 3.92 3.92 0 01-.74-2.43 3.49 3.49 0 01.84-2.45 2.7 2.7 0 012.07-.91 2.54 2.54 0 012.09 1 3.73 3.73 0 01.76 2.4 3.55 3.55 0 01-.83 2.45 2.67 2.67 0 01-2.13.94zm.08-.82a1.58 1.58 0 001.27-.63 3 3 0 00.52-2 2.83 2.83 0 00-.54-1.93 1.65 1.65 0 00-1.26-.6 1.62 1.62 0 00-1.26.6 3 3 0 00-.51 1.92 3 3 0 00.51 2 1.64 1.64 0 001.27.64zm3.39.65l2.12-6.41h1.2l2.07 6.41h-1l-1.6-5.2h-.2l-1.62 5.2zm8.62.19a2.46 2.46 0 01-2.06-1 3.91 3.91 0 01-.73-2.42 3.51 3.51 0 01.83-2.45 2.69 2.69 0 012.07-.91 2.52 2.52 0 012.09 1 3.78 3.78 0 01.77 2.41 3.65 3.65 0 01-.83 2.45 2.72 2.72 0 01-2.14.92zm.08-.83a1.6 1.6 0 001.28-.63 3.07 3.07 0 00.51-2 2.81 2.81 0 00-.53-1.94 1.65 1.65 0 00-1.27-.6 1.57 1.57 0 00-1.25.61 2.88 2.88 0 00-.52 1.92 3.09 3.09 0 00.51 2 1.61 1.61 0 001.27.64zm4.19.65v-6.41h3.72v.79H65.9v5.63zm5.73-.6v.61h-1v-6.41h1v4.83c.27-.43.55-.83.83-1.2l2.24-2.94v-.69h1v6.41h-1v-4.69a9 9 0 01-.83 1.19zm9.14.62v-2.75a2.63 2.63 0 01-1.76.63 2.54 2.54 0 01-1.37-.38 1.44 1.44 0 01-.59-1.29v-2.63h1v2.39c0 .72.4 1.08 1.21 1.08a2.5 2.5 0 001.51-.44v-3h1v6.41zm7.16-1.9l.92.19a2.61 2.61 0 01-1 1.36 2.85 2.85 0 01-1.73.54 2.72 2.72 0 01-2.13-.93 4 4 0 010-4.9 2.72 2.72 0 012.12-.94 2.55 2.55 0 012 .87 3.9 3.9 0 01.78 2.6h-4.59a2.47 2.47 0 00.61 2 2 2 0 001.29.51 1.77 1.77 0 001.73-1.3zm-.06-1.95a2.83 2.83 0 00-.18-1 1.58 1.58 0 00-.55-.71 1.54 1.54 0 00-.95-.3 1.72 1.72 0 00-1.26.53 2.17 2.17 0 00-.58 1.44zm6 1.62l.9.16a2.84 2.84 0 01-.84 1.66 2.56 2.56 0 01-3.66-.38 4 4 0 01-.69-2.39 3.92 3.92 0 01.74-2.43 2.35 2.35 0 012-1 2.3 2.3 0 011.67.62 2.77 2.77 0 01.79 1.62l-.9.17c-.17-1.06-.68-1.59-1.54-1.59a1.42 1.42 0 00-1.27.7 3.4 3.4 0 00-.44 1.82 3.44 3.44 0 00.44 1.91 1.38 1.38 0 001.24.69c.82.04 1.34-.49 1.56-1.56zm5.14-1.91l2.25 4.17h-1.1L97.29 105 96 106.57v2h-1v-6.41h1v2.42a8.58 8.58 0 010 1 7.67 7.67 0 01.63-.81l2.38-2.65h.99zm3.9 3.61v.61h-1v-6.42h1v4.83a11.46 11.46 0 01.83-1.2l2.24-2.94v-.69h1v6.41h-1v-4.69a9 9 0 01-.83 1.19zm6.78 0v.61h-1v-6.42h1v3.37c0 .47 0 1-.05 1.47.28-.44.55-.84.83-1.2l2.25-2.94v-.69h1v6.41h-1v-4.69a11 11 0 01-.83 1.19zm-.41-8.44h.73a1 1 0 001.15.87 1.05 1.05 0 001.2-.87h.73a1.71 1.71 0 01-1.82 1.63 1.76 1.76 0 01-1.99-1.67zm12 4.86l2.25 4.16h-1.12l-1.86-3.51-1.31 1.53v2h-1v-6.41h1v2.42a8.7 8.7 0 010 1 7.67 7.67 0 01.63-.81l2.38-2.65h1.09zm5.67 4.35a2.44 2.44 0 01-2.06-1 4 4 0 01-.74-2.43 3.49 3.49 0 01.84-2.45 2.67 2.67 0 012.07-.91 2.53 2.53 0 012.09 1 3.77 3.77 0 01.76 2.41 3.6 3.6 0 01-.83 2.45 2.7 2.7 0 01-2.13.93zm.08-.83a1.58 1.58 0 001.27-.63 3 3 0 00.52-2 2.83 2.83 0 00-.54-1.93 1.63 1.63 0 00-1.26-.61 1.57 1.57 0 00-1.26.61 3.93 3.93 0 000 3.91 1.6 1.6 0 001.25.65zm4.19.65v-6.41h1.62l1.9 5.54 2-5.53h1.52v6.41h-1v-5.54h-.08l-2 5.54h-1.08l-2-5.63H131v5.63zm8.79.01v-6.41h4.83v6.41h-1V103H140v5.64zm5.84.01l2.16-6.41h1.2l2.07 6.42h-1l-1.6-5.2h-.2l-1.62 5.2zm10.64-1.9l.93.2a2.65 2.65 0 01-1 1.36 2.92 2.92 0 01-1.74.53 2.68 2.68 0 01-2.12-.93 4 4 0 010-4.9 2.75 2.75 0 012.12-.94 2.55 2.55 0 012 .87 3.93 3.93 0 01.78 2.61h-4.66a2.49 2.49 0 00.61 2 2 2 0 001.28.51 1.76 1.76 0 001.8-1.31zm0-1.94a2.83 2.83 0 00-.18-1 1.61 1.61 0 00-.56-.72 1.49 1.49 0 00-.94-.3 1.66 1.66 0 00-1.26.54 2.2 2.2 0 00-.59 1.43zm5.39-.3l2.25 4.16H162l-1.86-3.51-1.31 1.53v2h-1v-6.41h1v2.42a8.7 8.7 0 01-.05 1 7.67 7.67 0 01.63-.81l2.38-2.65h1.09zm6.8 1.92l.9.16a2.88 2.88 0 01-.85 1.67 2.31 2.31 0 01-1.63.6 2.34 2.34 0 01-2-1 4 4 0 01-.69-2.4 3.92 3.92 0 01.73-2.43 2.39 2.39 0 012-1 2.27 2.27 0 011.68.63 2.76 2.76 0 01.78 1.61l-.9.17q-.25-1.59-1.53-1.59a1.44 1.44 0 00-1.27.7 3.34 3.34 0 00-.45 1.82 3.59 3.59 0 00.44 1.92 1.4 1.4 0 001.24.68c.8.07 1.33-.47 1.55-1.54z" fill="#005baa"/></symbol><symbol viewBox="0 0 210.83 47.83" id="logo-2" xmlns="http://www.w3.org/2000/svg"><defs><clipPath id="ga"><path d="M42.08 22.78A19.25 19.25 0 1122.83 3.53a19.25 19.25 0 0119.25 19.25z" fill="none" clip-rule="evenodd"/></clipPath></defs><path d="M65.47 32.66l-.75-.06h-2.18c-.25-.69-.52-1.49-.86-2.4s-.68-1.79-1-2.64-.69-1.68-1-2.51l-3.58-8.28-3.58 8.32c-1.41 3.52-2.33 6-2.78 7.54-.15 0-.34 0-.55-.05h-1.01a2.87 2.87 0 01-.45.05l8.73-19.51h.66l8.35 19.54zm5.41-10.79h4.33c.33 0 .8 0 1.4-.07l1.09-.07a2 2 0 000 .21v.75a2.54 2.54 0 000 .29 1.84 1.84 0 000 .26c-.27 0-.66 0-1.19-.08s-1-.06-1.29-.07h-4.34v8.16c1.14 0 2.83 0 5-.1a20.32 20.32 0 002.57-.25v.26a3.11 3.11 0 000 .32 1.29 1.29 0 000 .25 3.07 3.07 0 000 .42 3.15 3.15 0 010 .43H68.37v-19h9.93v.41a2.29 2.29 0 000 .43 3.73 3.73 0 000 .43c0 .17 0 .31.06.4a21.62 21.62 0 00-2.52-.31L73 14.87h-2.11v7zm13.98-6.98c1.13 0 2.82 0 5.06.11.61 0 1.49.11 2.64.26v-.58a1.33 1.33 0 010-.26 3 3 0 010-.41c0-.14 0-.29.06-.43H82.41v19h2.46v-17.7zm13.96 7.02h4.33c.34 0 .8 0 1.4-.07l1.08-.06v.21a2.85 2.85 0 000 .29 1.22 1.22 0 000 .22 1.43 1.43 0 000 .23v.56c-.27 0-.66 0-1.19-.08s-1-.07-1.3-.07h-4.32v8.16c1.13 0 2.82 0 5-.1a20.13 20.13 0 002.57-.24 1.38 1.38 0 010 .25v.32a1.33 1.33 0 000 .26 2 2 0 000 .41v.43H96.36v-19h9.91c0 .11 0 .25-.05.41a2.47 2.47 0 000 .44 2.35 2.35 0 000 .42c0 .18 0 .32.05.41a19.42 19.42 0 00-2.52-.31l-2.8-.06h-2.12v7zm40.65 10.84l-.75-.06h-1.46l-.72.05c-.23-.69-.52-1.49-.86-2.4s-.67-1.79-1-2.64-.7-1.68-1-2.51h-7.1c-1.4 3.52-2.33 6-2.77 7.54h-2.02l8.74-19.51h.65l8.35 19.54zm-9.36-15.88L127.06 24h6.14l-3.09-7.15zm14.48 15.88h-.65a4.64 4.64 0 00-.57 0 5.36 5.36 0 00-.63 0h-.6v-19.1h5a16.63 16.63 0 014.29.44 3.86 3.86 0 012.23 1.44 4.67 4.67 0 01.67 2.71 6 6 0 01-.37 2.19 4.48 4.48 0 01-1.1 1.57 6.17 6.17 0 01-1.86 1.17 14.82 14.82 0 01-2.63.76 8.12 8.12 0 01-1.63.13h-2.15v8.77zm0-9.87c.53.05 1 .07 1.28.07s.77 0 1.49-.06a5 5 0 003.24-1.42 4.28 4.28 0 001.17-3.1 4.24 4.24 0 00-.33-1.75 3 3 0 00-1-1.27 3.79 3.79 0 00-1.78-.58c-.39 0-1.11-.06-2.15-.06h-1.87v8.14zm19.99 9.95h-.62a5.67 5.67 0 00-.6 0 6 6 0 00-.62 0h-.61v-17.8a57.64 57.64 0 00-6.12.32v-.43a2.61 2.61 0 000-.4 2.82 2.82 0 000-.42 4 4 0 010-.43h14.41v1.1a1.87 1.87 0 000 .32v.26a48.37 48.37 0 00-5.84-.34v17.81zm9.21-.04h.83c.41-.52.9-1.09 1.46-1.7l12.08-13.34h.28v15.06l.41-.06h.78c.18 0 .3 0 .36.06v-19.1h-1.08l-13.28 14.36h-.28V13.69a3.35 3.35 0 00-.4.05 2.36 2.36 0 01-.37 0h-.78v19.11zm36.01-1.22a10.94 10.94 0 01-6.18 1.59 11.71 11.71 0 01-4.1-.7 8.38 8.38 0 01-5.06-5.19 12.23 12.23 0 01-.67-4.12 9.86 9.86 0 011.4-5.28 8.76 8.76 0 013.81-3.41 12.14 12.14 0 015.36-1.16 14.94 14.94 0 016 1.29 13.63 13.63 0 00-.59 2.15h-.19a5.92 5.92 0 00-1-.92 7.68 7.68 0 00-1.9-1 6.51 6.51 0 00-2.42-.46 7.67 7.67 0 00-3.32.69 6.82 6.82 0 00-2.46 1.95 8.53 8.53 0 00-1.48 2.83 11.23 11.23 0 00-.5 3.42 11 11 0 00.94 4.64 7 7 0 006.56 4.17 8 8 0 003.5-.75 12.3 12.3 0 002.43-1.5l-.14 1.76z" fill="#005baa"/><path d="M22.81 0a22.81 22.81 0 1022.81 22.81A22.81 22.81 0 0022.81 0zm0 44.37a21.56 21.56 0 1121.56-21.56 21.56 21.56 0 01-21.56 21.56z" fill="#005baa" fill-rule="evenodd"/><g clip-path="url(#ga)"><path d="M22.63 4.18zm0 17.73h.88A15.64 15.64 0 0037.68 11l.21-1a21.54 21.54 0 00-14.42-5.82h-.88A21.68 21.68 0 007.8 10.59v1.3c.11-.13.22-.26.34-.38a15.63 15.63 0 0014.45 10.4zm2.1 5.41l.23.15c.14.07 1.59.9 1.59 3.68a10 10 0 01-.22 2 2.78 2.78 0 01.06.58 3.75 3.75 0 01-3.72 3.75 3.71 3.71 0 01-3-1.52c0 2.08.94 2.71 1 2.74.93.85 2.44.59 3.35.32a.77.77 0 01.77-.6.76.76 0 01.72.79 1 1 0 010 .2 6.61 6.61 0 00-.82-12.12zM18.76 36a9.48 9.48 0 01.24-1.75 3.31 3.31 0 010-.55 3.71 3.71 0 016.71-2.22c.11-2.51-1.06-3.19-1.12-3.22-1-.81-2.46-.48-3.36-.16a.75.75 0 11-1.44-.39A6.61 6.61 0 0021.32 40a2.84 2.84 0 01-1.12-.6c-.09-.01-1.44-.82-1.44-3.4zm19.53-2.22a18.39 18.39 0 00-15.48-8.53C15.47 25.15 11 29 7.46 33.42c-.13-.16-.26-.33-.4-.49v1.36a21.61 21.61 0 0031.58.44v-1.31zM22.54 41A7.47 7.47 0 1130 33.55 7.45 7.45 0 0122.54 41z" fill="#005baa"/></g><path d="M22.83 16.14a11 11 0 0010.88-9.25c-.29-.16-.59-.31-.89-.46a10.1 10.1 0 01-10 8.77 10 10 0 01-10-8.56c-.3.15-.59.31-.88.48a11 11 0 0010.85 9z" fill="#fff" fill-rule="evenodd"/><path d="M23.37 22V4.19h-.94V22z" fill="#fff" fill-rule="evenodd"/><path fill="#0054a6" d="M22.43 15.18h.95v.95h-.95z"/><path d="M22.81 3.52A19.29 19.29 0 1042.1 22.81 19.28 19.28 0 0022.81 3.52zm0 37.78A18.49 18.49 0 1141.3 22.81 18.49 18.49 0 0122.81 41.3z" fill="#005baa" fill-rule="evenodd"/><path d="M45.55 45.84a2.44 2.44 0 01-2.06-1 3.91 3.91 0 01-.73-2.42 3.5 3.5 0 01.83-2.42 2.67 2.67 0 012.07-.91 2.51 2.51 0 012.08 1 3.73 3.73 0 01.76 2.4 3.57 3.57 0 01-.83 2.44 2.68 2.68 0 01-2.12.91zm.07-.83a1.59 1.59 0 001.28-.62 3.07 3.07 0 00.51-2 2.89 2.89 0 00-.53-1.93 1.65 1.65 0 00-1.26-.6 1.6 1.6 0 00-1.26.6 3 3 0 00-.51 1.92 3.05 3.05 0 00.51 2 1.59 1.59 0 001.26.62zm6.86 2.82v-2.16a3.32 3.32 0 01-2.25-1 3.1 3.1 0 01-.85-2.23 2.94 2.94 0 01.88-2.23 3.52 3.52 0 012.23-.94V37.2h.86v2.08a3.44 3.44 0 012.23.94 3 3 0 01.88 2.22 3.14 3.14 0 01-.86 2.23 3.32 3.32 0 01-2.26 1v2.16zm0-7.81a2.23 2.23 0 00-2 2.47 2.18 2.18 0 002 2.42zm.85 4.89a2.21 2.21 0 002-2.43 2.22 2.22 0 00-2-2.46zm5.27.77v-5.62h-1.77v-.78h4.55v.77H59.6v5.62zm8.4.01h-1a11 11 0 01-.12-1.15 2.29 2.29 0 01-2.24 1.33 2.23 2.23 0 01-1.64-.58 1.84 1.84 0 01-.57-1.37 1.92 1.92 0 01.82-1.6 4.8 4.8 0 012.8-.62h.85a3.61 3.61 0 00-.12-1.1.94.94 0 00-.5-.54 2 2 0 00-1-.21c-1 0-1.6.39-1.77 1.15l-.91-.16c.22-1.17 1.16-1.76 2.82-1.76a2.52 2.52 0 011.88.59 2.94 2.94 0 01.55 2v2.71a5.39 5.39 0 00.15 1.31zm-1.09-3.2h-.93a3.72 3.72 0 00-1.83.38 1.25 1.25 0 00-.63 1.13 1.06 1.06 0 00.35.8 1.41 1.41 0 001 .33 1.86 1.86 0 001.48-.65 2.21 2.21 0 00.58-1.53c.01-.16.01-.3 0-.46zm1.98 3.2L70 39.3h1.2l2.06 6.39h-1l-1.6-5.18h-.2l-1.62 5.18zm6.26 0V39.3h1v2.46h1.9a1.85 1.85 0 011.49.59 2.24 2.24 0 01.46 1.49 1.77 1.77 0 01-.54 1.37 2.1 2.1 0 01-1.46.49zm1-.77h1.68a1 1 0 001.12-1.1c0-.85-.37-1.27-1.12-1.27h-1.68zm4.95.78v-6.39h1.61l1.9 5.52 2-5.51h1.52v6.39h-1v-5.52h-.08l-2 5.52H83l-2-5.62v5.61zm11.04.19a2.41 2.41 0 01-2-1 3.89 3.89 0 01-.73-2.42 3.46 3.46 0 01.83-2.43 2.67 2.67 0 012.06-.92 2.56 2.56 0 012.09 1 3.73 3.73 0 01.76 2.4 3.59 3.59 0 01-.88 2.48 2.69 2.69 0 01-2.13.89zm.08-.82a1.62 1.62 0 001.28-.62 3.07 3.07 0 00.51-2 2.83 2.83 0 00-.54-1.93 1.61 1.61 0 00-1.25-.6 1.59 1.59 0 00-1.26.6 2.94 2.94 0 00-.51 1.92 3.05 3.05 0 00.51 2 1.59 1.59 0 001.26.63zm3.39.65l2.12-6.39h1.2l2.06 6.4H99l-1.6-5.19h-.19l-1.62 5.18zm8.59.19a2.42 2.42 0 01-2-1 3.91 3.91 0 01-.74-2.42 3.51 3.51 0 01.84-2.44 2.66 2.66 0 012.06-.91 2.53 2.53 0 012.09 1 3.79 3.79 0 01.76 2.4 3.62 3.62 0 01-.83 2.44 2.7 2.7 0 01-2.18.93zm.08-.83a1.53 1.53 0 001.27-.62 3.07 3.07 0 00.52-2 2.83 2.83 0 00-.54-1.93 1.65 1.65 0 00-1.26-.6 1.57 1.57 0 00-1.25.61 2.93 2.93 0 00-.52 1.91 3.09 3.09 0 00.51 2 1.63 1.63 0 001.27.63zm4.18.66v-6.4h3.71v.77h-2.72v5.62zm5.71-.6v.6h-1v-6.39h1v4.82c.27-.44.54-.83.82-1.2l2.2-2.97v-.69h1v6.4h-1v-4.64a8.67 8.67 0 01-.83 1.19zm9.11.61V43a2.65 2.65 0 01-1.75.63 2.48 2.48 0 01-1.36-.38 1.42 1.42 0 01-.59-1.29v-2.6h1v2.38c0 .72.4 1.08 1.21 1.08a2.54 2.54 0 001.51-.43v-3h1v6.4zm7.14-1.89l.92.19a2.55 2.55 0 01-1 1.35 2.83 2.83 0 01-1.73.54 2.68 2.68 0 01-2.11-.94 3.46 3.46 0 01-.8-2.41 3.56 3.56 0 01.84-2.47 2.72 2.72 0 012.12-.94 2.55 2.55 0 012 .87 3.88 3.88 0 01.78 2.6h-4.64a2.47 2.47 0 00.61 2 2 2 0 001.28.51 1.77 1.77 0 001.73-1.3zm-.06-2a2.82 2.82 0 00-.17-.95 1.6 1.6 0 00-.56-.71 1.49 1.49 0 00-.94-.3 1.69 1.69 0 00-1.26.53 2.2 2.2 0 00-.58 1.43zm5.99 1.67l.9.16a2.85 2.85 0 01-.85 1.66 2.54 2.54 0 01-3.64-.38 4 4 0 01-.69-2.39 3.87 3.87 0 01.73-2.42 2.38 2.38 0 012-1 2.3 2.3 0 011.68.62 2.82 2.82 0 01.78 1.62l-.9.17Q135.1 40 133.82 40a1.39 1.39 0 00-1.26.7 3.28 3.28 0 00-.45 1.81 3.53 3.53 0 00.44 1.91 1.37 1.37 0 001.23.68c.83.02 1.35-.51 1.57-1.57zm5.14-1.9l2.25 4.15h-1.13l-1.85-3.5-1.31 1.52v2h-1v-6.42h1v2.42c0 .45 0 .8-.05 1a7.67 7.67 0 01.6-.8l2.36-2.64h1.09zm3.87 3.54v.61h-1v-6.39h1v3.35c0 .47 0 1-.05 1.47.28-.44.55-.84.83-1.2l2.24-2.93v-.69h1v6.4h-1v-4.68a9.06 9.06 0 01-.83 1.18zm6.76.01v.61h-1V39.4h1v3.35c0 .47 0 1-.05 1.47a13.2 13.2 0 01.83-1.2l2.24-2.93v-.69h1v6.39h-1v-3.21c0-.59 0-1.08.05-1.46a11.16 11.16 0 01-.83 1.18zm-.41-8.41h.72a1 1 0 001.15.86c.68 0 1.08-.28 1.19-.86h.72a1.69 1.69 0 01-1.81 1.62 1.75 1.75 0 01-1.97-1.62zm11.96 4.89l2.25 4.15h-1.12l-1.86-3.51-1.3 1.53v2h-1v-6.42h1v2.41a8.7 8.7 0 010 1 7.67 7.67 0 01.63-.81l2.37-2.64h1.09zm5.65 4.34a2.43 2.43 0 01-2-1 3.91 3.91 0 01-.73-2.42 3.5 3.5 0 01.83-2.44 2.66 2.66 0 012.06-.91 2.52 2.52 0 012.09 1 3.73 3.73 0 01.76 2.4 3.57 3.57 0 01-.83 2.44 2.7 2.7 0 01-2.18.93zm.08-.82a1.57 1.57 0 001.27-.63 3 3 0 00.52-1.95 2.83 2.83 0 00-.54-1.93 1.62 1.62 0 00-1.26-.6 1.57 1.57 0 00-1.25.61 2.93 2.93 0 00-.51 1.91 3 3 0 00.51 2 1.62 1.62 0 001.26.58zm4.18.64v-6.4h1.62l1.9 5.52 2-5.51h1.53v6.4h-1V40.3h-.08l-2 5.52h-1.08l-2-5.61h-.08v5.61zm8.8.01v-6.4h4.81v6.39h-1v-5.6h-2.82v5.62zm5.79 0l2.12-6.39h1.19l2.06 6.39h-1l-1.6-5.19h-.19l-1.63 5.19zm10.61-1.89l.93.19a2.61 2.61 0 01-1 1.36A2.84 2.84 0 01196 46a2.69 2.69 0 01-2.12-.92 4 4 0 010-4.89 2.73 2.73 0 012.11-.94 2.62 2.62 0 012 .87 4 4 0 01.78 2.6h-4.65a2.49 2.49 0 00.6 1.95 2 2 0 001.29.51 1.75 1.75 0 001.77-1.24zm-.05-1.94a2.83 2.83 0 00-.18-1 1.64 1.64 0 00-.55-.71 1.6 1.6 0 00-.95-.3 1.66 1.66 0 00-1.25.54 2.2 2.2 0 00-.59 1.43zm5.42-.29l2.25 4.15h-1.12l-1.86-3.51-1.31 1.53v2h-1v-6.42h1v2.41a8.58 8.58 0 01-.05 1 7.67 7.67 0 01.63-.81l2.37-2.64h1.08zm6.78 1.91l.9.16a2.9 2.9 0 01-.84 1.66 2.55 2.55 0 01-3.65-.38 4 4 0 01-.69-2.38 3.9 3.9 0 01.74-2.43 2.36 2.36 0 012-1 2.25 2.25 0 011.67.63 2.76 2.76 0 01.78 1.61l-.9.17c-.16-1.06-.67-1.59-1.52-1.59a1.44 1.44 0 00-1.27.7 3.39 3.39 0 00-.44 1.81 3.53 3.53 0 00.43 1.91 1.42 1.42 0 001.24.69c.81.04 1.33-.49 1.55-1.56z" fill="#005baa"/></symbol><symbol viewBox="0 0 477.175 477.175" id="next" xmlns="http://www.w3.org/2000/svg"><path d="M360.731 229.075l-225.1-225.1c-5.3-5.3-13.8-5.3-19.1 0s-5.3 13.8 0 19.1l215.5 215.5-215.5 215.5c-5.3 5.3-5.3 13.8 0 19.1 2.6 2.6 6.1 4 9.5 4 3.4 0 6.9-1.3 9.5-4l225.1-225.1c5.3-5.2 5.3-13.8.1-19z"/></symbol><symbol viewBox="0 0 919.8 919.8" id="pen" xmlns="http://www.w3.org/2000/svg"><path d="M684.833 209.4l27-33.8c37-46.2 29.5-113.7-16.801-150.7l-1.699-1.4c-46.2-37-113.7-29.5-150.7 16.8l-26.9 33.7 169.1 135.4z"/><path d="M520.532 493.5c.9 8.199 5 16 11.9 21.6 13.9 11.1 34.2 8.9 45.3-5l185.5-232c11.3-14.1 8.8-34.8-5.7-45.8-14-10.6-34.1-7.6-45.1 6.1l-18.1 22.6-31-24.8.1-.1-169-135.5-432.4 540.5 169.1 135.4 392.1-490 31 24.8-126.8 158.5c-5.599 6.899-7.799 15.5-6.9 23.7zm-317.5 308l-159.3-127.601c-2.6 8.9-3.9 16.7-3.9 16.7l-36.5 174.8c-2.6 12.601 10.2 22.9 21.9 17.5l162.6-74c-.1 0 7.1-3 15.2-7.399zm690.601 31.3c-1.4 0-2.7.1-4.101.3l-245.699 31.8c-12.601 1.601-21.4-12.2-14.601-23 3.7-5.7 7.3-11.5 10.9-17.3 9.5-15.4-3.2-35.9-20.8-35.9-1.2 0-2.4.101-3.7.301l-322 48.399-38.5 5.8-105 15.801c-11.9 1.8-19.9 11.899-18.9 24 .4 5.399 2.6 10.5 6.1 14.3 4.1 4.5 9.8 7 16 7 1.2 0 2.4-.101 3.7-.3l383.801-57.7c13.1-2 22.1 12.8 14.399 23.6-2.5 3.4-5 6.9-7.5 10.3-6.899 9.4-5.3 25.101 2.7 33.2 4.1 4.2 9.3 6.4 14.8 6.4.601 0 1.3 0 1.9-.101h.201l331.3-42.199h.201c5.699-.9 10.699-4.2 14-9.301 3.6-5.6 4.899-12.5 3.3-18.699-2.602-10.102-11.402-16.701-22.501-16.701z"/></symbol><symbol viewBox="0 0 56.966 56.966" id="search" xmlns="http://www.w3.org/2000/svg"><path d="M55.146 51.887L41.588 37.786A22.926 22.926 0 0046.984 23c0-12.682-10.318-23-23-23s-23 10.318-23 23 10.318 23 23 23c4.761 0 9.298-1.436 13.177-4.162l13.661 14.208c.571.593 1.339.92 2.162.92.779 0 1.518-.297 2.079-.837a3.004 3.004 0 00.083-4.242zM23.984 6c9.374 0 17 7.626 17 17s-7.626 17-17 17-17-7.626-17-17 7.626-17 17-17z"/></symbol><symbol viewBox="0 0 52.966 52.966" id="zoom-in" xmlns="http://www.w3.org/2000/svg"><path d="M28.983 20h-6v-6a1 1 0 00-2 0v6h-6a1 1 0 000 2h6v6a1 1 0 002 0v-6h6a1 1 0 000-2z"/><path d="M51.704 51.273L36.845 35.82c3.79-3.801 6.138-9.041 6.138-14.82 0-11.58-9.42-21-21-21s-21 9.42-21 21 9.42 21 21 21c5.083 0 9.748-1.817 13.384-4.832l14.895 15.491a.998.998 0 001.414.028 1 1 0 00.028-1.414zM2.983 21c0-10.477 8.523-19 19-19s19 8.523 19 19-8.523 19-19 19-19-8.523-19-19z"/></symbol></svg>