<svg id="Layer_1" data-name="Layer 1" xmlns="http://www.w3.org/2000/svg" xmlns:xlink="http://www.w3.org/1999/xlink" viewBox="0 0 210.83 47.83"><defs><clipPath id="clip-path"><path d="M42.08,22.78A19.25,19.25,0,1,1,22.83,3.53,19.25,19.25,0,0,1,42.08,22.78Z" style="fill:none;clip-rule:evenodd"/></clipPath></defs><title>logo-2</title><path d="M65.47,32.66l-.75-.06-.7,0c-.18,0-.44,0-.77,0l-.71,0c-.25-.69-.52-1.49-.86-2.4s-.68-1.79-1-2.64-.69-1.68-1-2.51L56.1,16.77l-3.58,8.32c-1.41,3.52-2.33,6-2.78,7.54-.15,0-.34,0-.55-.05l-.48,0-.53,0a2.87,2.87,0,0,1-.45.05l8.73-19.51h.66l8.35,19.54Z" style="fill:#005baa"/><path d="M70.88,21.87h4.33c.33,0,.8,0,1.4-.07l1.09-.07a2,2,0,0,0,0,.21c0,.11,0,.2,0,.3s0,.16,0,.21,0,.13,0,.24a2.54,2.54,0,0,0,0,.29,1.84,1.84,0,0,0,0,.26c-.27,0-.66,0-1.19-.08s-1-.06-1.29-.07H70.88v8.16c1.14,0,2.83,0,5-.1a20.32,20.32,0,0,0,2.57-.25c0,.06,0,.15,0,.26a3.11,3.11,0,0,0,0,.32,1.29,1.29,0,0,0,0,.25,3.07,3.07,0,0,0,0,.42,3.15,3.15,0,0,1,0,.43l-10.08,0,0-19,9.93,0c0,.11,0,.25,0,.41a2.29,2.29,0,0,0,0,.43,3.73,3.73,0,0,0,0,.43c0,.17,0,.31.06.4a21.62,21.62,0,0,0-2.52-.31L73,14.87H70.89v7Z" style="fill:#005baa"/><path d="M84.86,14.89c1.13,0,2.82,0,5.06.11.61,0,1.49.11,2.64.26,0-.07,0-.16,0-.26s0-.22,0-.32a1.33,1.33,0,0,1,0-.26,3,3,0,0,1,0-.41c0-.14,0-.29.06-.43H82.41l0,19,.37,0,.48,0,.38,0,.37,0,.46,0,.4,0,0-17.7Z" style="fill:#005baa"/><path d="M98.82,21.91h4.33c.34,0,.8,0,1.4-.07l1.08-.06s0,.11,0,.21a2.85,2.85,0,0,0,0,.29,1.22,1.22,0,0,0,0,.22,1.43,1.43,0,0,0,0,.23l0,.29,0,.27c-.27,0-.66,0-1.19-.08s-1-.07-1.3-.07H98.82v8.16c1.13,0,2.82,0,5-.1a20.13,20.13,0,0,0,2.57-.24,1.38,1.38,0,0,1,0,.25c0,.11,0,.22,0,.32a1.33,1.33,0,0,0,0,.26,2,2,0,0,0,0,.41c0,.14,0,.29,0,.43H96.36l0-19h9.91c0,.11,0,.25-.05.41a2.47,2.47,0,0,0,0,.44,2.35,2.35,0,0,0,0,.42c0,.18,0,.32.05.41a19.42,19.42,0,0,0-2.52-.31l-2.8-.06H98.83v7Z" style="fill:#005baa"/><path d="M139.47,32.75l-.75-.06-.69,0-.77,0-.72.05c-.23-.69-.52-1.49-.86-2.4s-.67-1.79-1-2.64-.7-1.68-1-2.51h-7.1c-1.4,3.52-2.33,6-2.77,7.54-.15,0-.34,0-.55,0l-.49,0-.52,0-.46,0,8.74-19.51h.65l8.35,19.54Zm-9.36-15.88L127.06,24h6.14l-3.09-7.15Z" style="fill:#005baa"/><path d="M144.59,32.75l-.65,0a4.64,4.64,0,0,0-.57,0,5.36,5.36,0,0,0-.63,0l-.6,0,0-19.1h5a16.63,16.63,0,0,1,4.29.44,3.86,3.86,0,0,1,2.23,1.44,4.67,4.67,0,0,1,.67,2.71,6,6,0,0,1-.37,2.19A4.48,4.48,0,0,1,152.86,22,6.17,6.17,0,0,1,151,23.17a14.82,14.82,0,0,1-2.63.76,8.12,8.12,0,0,1-1.63.13c-.34,0-.75,0-1.24,0l-.91,0v8.77Zm0-9.87c.53.05,1,.07,1.28.07s.77,0,1.49-.06a5,5,0,0,0,3.24-1.42,4.28,4.28,0,0,0,1.17-3.1,4.24,4.24,0,0,0-.33-1.75,3,3,0,0,0-1-1.27,3.79,3.79,0,0,0-1.78-.58c-.39,0-1.11-.06-2.15-.06s-1.59,0-1.87,0v8.14Z" style="fill:#005baa"/><path d="M164.58,32.83l-.62,0a5.67,5.67,0,0,0-.6,0,6,6,0,0,0-.62,0l-.61,0,0-17.8a57.64,57.64,0,0,0-6.12.32c0-.09,0-.24,0-.43a2.61,2.61,0,0,0,0-.4,2.82,2.82,0,0,0,0-.42,4,4,0,0,1,0-.43l14.41,0c0,.07,0,.15,0,.26s0,.22,0,.32,0,.2,0,.26,0,.15,0,.26a1.87,1.87,0,0,0,0,.32c0,.12,0,.2,0,.26a48.37,48.37,0,0,0-5.84-.34l0,17.81Z" style="fill:#005baa"/><path d="M173.79,32.79h.83c.41-.52.9-1.09,1.46-1.7l12.08-13.34h.28l0,15.06.41-.06.37,0,.41,0c.18,0,.3,0,.36.06l0-19.1h-1.08L175.63,28.07h-.28V13.69a3.35,3.35,0,0,0-.4.05,2.36,2.36,0,0,1-.37,0h-.24l-.29,0-.25,0,0,19.11Z" style="fill:#005baa"/><path d="M209.8,31.57a10.94,10.94,0,0,1-6.18,1.59,11.71,11.71,0,0,1-4.1-.7,8.38,8.38,0,0,1-5.06-5.19,12.23,12.23,0,0,1-.67-4.12,9.86,9.86,0,0,1,1.4-5.28A8.76,8.76,0,0,1,199,14.46a12.14,12.14,0,0,1,5.36-1.16,14.94,14.94,0,0,1,6,1.29,13.63,13.63,0,0,0-.59,2.15l-.19,0a5.92,5.92,0,0,0-1-.92,7.68,7.68,0,0,0-1.9-1,6.51,6.51,0,0,0-2.42-.46,7.67,7.67,0,0,0-3.32.69A6.82,6.82,0,0,0,198.48,17,8.53,8.53,0,0,0,197,19.83a11.23,11.23,0,0,0-.5,3.42,11,11,0,0,0,.94,4.64A7,7,0,0,0,204,32.06a8,8,0,0,0,3.5-.75,12.3,12.3,0,0,0,2.43-1.5l-.14,1.76Z" style="fill:#005baa"/><path d="M22.81,0A22.81,22.81,0,1,0,45.62,22.81,22.81,22.81,0,0,0,22.81,0Zm0,44.37A21.56,21.56,0,1,1,44.37,22.81,21.56,21.56,0,0,1,22.81,44.37Z" style="fill:#005baa;fill-rule:evenodd"/><g style="clip-path:url(#clip-path)"><path d="M22.63,4.18h0Zm0,17.73.88,0A15.64,15.64,0,0,0,37.68,11l.21-1A21.54,21.54,0,0,0,23.47,4.18h-.88A21.68,21.68,0,0,0,7.8,10.59h0v1.3c.11-.13.22-.26.34-.38A15.63,15.63,0,0,0,22.59,21.91Zm2.1,5.41.23.15c.14.07,1.59.9,1.59,3.68a10,10,0,0,1-.22,2,2.78,2.78,0,0,1,.06.58,3.75,3.75,0,0,1-3.72,3.75,3.71,3.71,0,0,1-3-1.52c0,2.08.94,2.71,1,2.74l0,0,0,0c.93.85,2.44.59,3.35.32a.77.77,0,0,1,.77-.6.76.76,0,0,1,.72.79,1,1,0,0,1,0,.2,6.61,6.61,0,0,0-.82-12.12ZM18.76,36A9.48,9.48,0,0,1,19,34.25a3.31,3.31,0,0,1,0-.55,3.71,3.71,0,0,1,6.71-2.22c.11-2.51-1.06-3.19-1.12-3.22l0,0,0,0c-1-.81-2.46-.48-3.36-.16a.75.75,0,1,1-1.44-.39A6.61,6.61,0,0,0,21.32,40a2.84,2.84,0,0,1-1.12-.6C20.11,39.39,18.76,38.58,18.76,36Zm19.53-2.22a18.39,18.39,0,0,0-15.48-8.53C15.47,25.15,11,29,7.46,33.42c-.13-.16-.26-.33-.4-.49v1.36a21.61,21.61,0,0,0,31.58.44V33.42ZM22.54,41A7.47,7.47,0,1,1,30,33.55,7.45,7.45,0,0,1,22.54,41Z" style="fill:#005baa"/></g><path d="M22.83,16.14A11,11,0,0,0,33.71,6.89c-.29-.16-.59-.31-.89-.46a10.1,10.1,0,0,1-10,8.77,10,10,0,0,1-10-8.56c-.3.15-.59.31-.88.48a11,11,0,0,0,10.85,9Z" style="fill:#fff;fill-rule:evenodd"/><path d="M23.37,22V4.19h-.94V22Z" style="fill:#fff;fill-rule:evenodd"/><rect x="22.43" y="15.18" width="0.95" height="0.95" style="fill:#0054a6"/><path d="M22.81,3.52A19.29,19.29,0,1,0,42.1,22.81,19.28,19.28,0,0,0,22.81,3.52Zm0,37.78A18.49,18.49,0,1,1,41.3,22.81,18.49,18.49,0,0,1,22.81,41.3Z" style="fill:#005baa;fill-rule:evenodd"/><path d="M45.55,45.84a2.44,2.44,0,0,1-2.06-1,3.91,3.91,0,0,1-.73-2.42A3.5,3.5,0,0,1,43.59,40a2.67,2.67,0,0,1,2.07-.91,2.51,2.51,0,0,1,2.08,1,3.73,3.73,0,0,1,.76,2.4,3.57,3.57,0,0,1-.83,2.44A2.68,2.68,0,0,1,45.55,45.84Zm.07-.83a1.59,1.59,0,0,0,1.28-.62,3.07,3.07,0,0,0,.51-2,2.89,2.89,0,0,0-.53-1.93,1.65,1.65,0,0,0-1.26-.6,1.6,1.6,0,0,0-1.26.6,3,3,0,0,0-.51,1.92,3.05,3.05,0,0,0,.51,2A1.59,1.59,0,0,0,45.62,45Z" style="fill:#005baa"/><path d="M52.48,47.83V45.67a3.32,3.32,0,0,1-2.25-1,3.1,3.1,0,0,1-.85-2.23,2.94,2.94,0,0,1,.88-2.23,3.52,3.52,0,0,1,2.23-.94V37.2h.86v2.08a3.44,3.44,0,0,1,2.23.94,3,3,0,0,1,.88,2.22,3.14,3.14,0,0,1-.86,2.23,3.32,3.32,0,0,1-2.26,1v2.16Zm0-7.81a2.23,2.23,0,0,0-2,2.47,2.18,2.18,0,0,0,2,2.42Zm.85,4.89a2.21,2.21,0,0,0,2-2.43,2.22,2.22,0,0,0-2-2.46Z" style="fill:#005baa"/><path d="M58.6,45.68V40.06H56.83v-.78h4.55v.77H59.6v5.62Z" style="fill:#005baa"/><path d="M67,45.69H66a11,11,0,0,1-.12-1.15,2.29,2.29,0,0,1-2.24,1.33A2.23,2.23,0,0,1,62,45.29a1.84,1.84,0,0,1-.57-1.37,1.92,1.92,0,0,1,.82-1.6,4.8,4.8,0,0,1,2.8-.62l.85,0a3.61,3.61,0,0,0-.12-1.1.94.94,0,0,0-.5-.54,2,2,0,0,0-1-.21c-1,0-1.6.39-1.77,1.15l-.91-.16c.22-1.17,1.16-1.76,2.82-1.76a2.52,2.52,0,0,1,1.88.59,2.94,2.94,0,0,1,.55,2v2.71A5.39,5.39,0,0,0,67,45.69Zm-1.09-3.2c-.41,0-.72,0-.93,0a3.72,3.72,0,0,0-1.83.38A1.25,1.25,0,0,0,62.52,44a1.06,1.06,0,0,0,.35.8,1.41,1.41,0,0,0,1,.33,1.86,1.86,0,0,0,1.48-.65,2.21,2.21,0,0,0,.58-1.53C65.94,42.79,65.94,42.65,65.93,42.49Z" style="fill:#005baa"/><path d="M67.89,45.69,70,39.3h1.2l2.06,6.39h-1l-1.6-5.18h-.2l-1.62,5.18Z" style="fill:#005baa"/><path d="M74.15,45.69V39.3h1v2.46h1.9a1.85,1.85,0,0,1,1.49.59A2.24,2.24,0,0,1,79,43.84a1.77,1.77,0,0,1-.54,1.37A2.1,2.1,0,0,1,77,45.7Zm1-.77h1.68a1,1,0,0,0,1.12-1.1c0-.85-.37-1.27-1.12-1.27H75.15Z" style="fill:#005baa"/><path d="M80.1,45.7V39.31h1.61l1.9,5.52,2-5.51h1.52v6.39h-1V40.19h-.08l-2,5.52H83l-2-5.62H81V45.7Z" style="fill:#005baa"/><path d="M91.14,45.89a2.41,2.41,0,0,1-2-1,3.89,3.89,0,0,1-.73-2.42,3.46,3.46,0,0,1,.83-2.43,2.67,2.67,0,0,1,2.06-.92,2.56,2.56,0,0,1,2.09,1,3.73,3.73,0,0,1,.76,2.4A3.59,3.59,0,0,1,93.27,45,2.69,2.69,0,0,1,91.14,45.89Zm.08-.82a1.62,1.62,0,0,0,1.28-.62,3.07,3.07,0,0,0,.51-2,2.83,2.83,0,0,0-.54-1.93,1.61,1.61,0,0,0-1.25-.6,1.59,1.59,0,0,0-1.26.6,2.94,2.94,0,0,0-.51,1.92,3.05,3.05,0,0,0,.51,2A1.59,1.59,0,0,0,91.22,45.07Z" style="fill:#005baa"/><path d="M94.61,45.72l2.12-6.39h1.2l2.06,6.4H99l-1.6-5.19h-.19l-1.62,5.18Z" style="fill:#005baa"/><path d="M103.2,45.91a2.42,2.42,0,0,1-2-1,3.91,3.91,0,0,1-.74-2.42,3.51,3.51,0,0,1,.84-2.44,2.66,2.66,0,0,1,2.06-.91,2.53,2.53,0,0,1,2.09,1,3.79,3.79,0,0,1,.76,2.4,3.62,3.62,0,0,1-.83,2.44A2.7,2.7,0,0,1,103.2,45.91Zm.08-.83a1.53,1.53,0,0,0,1.27-.62,3.07,3.07,0,0,0,.52-2,2.83,2.83,0,0,0-.54-1.93,1.65,1.65,0,0,0-1.26-.6,1.57,1.57,0,0,0-1.25.61,2.93,2.93,0,0,0-.52,1.91,3.09,3.09,0,0,0,.51,2A1.63,1.63,0,0,0,103.28,45.08Z" style="fill:#005baa"/><path d="M107.46,45.74v-6.4h3.71v.77h-2.72v5.62Z" style="fill:#005baa"/><path d="M113.17,45.14v.6h-1V39.35h1V42.7c0,.47,0,1,0,1.47.27-.44.54-.83.82-1.2L116.19,40v-.69h1v6.4h-1V42.54c0-.6,0-1.09,0-1.47a8.67,8.67,0,0,1-.83,1.19Z" style="fill:#005baa"/><path d="M122.28,45.75V43a2.65,2.65,0,0,1-1.75.63,2.48,2.48,0,0,1-1.36-.38,1.42,1.42,0,0,1-.59-1.29V39.36h1v2.38c0,.72.4,1.08,1.21,1.08a2.54,2.54,0,0,0,1.51-.43v-3h1v6.4Z" style="fill:#005baa"/><path d="M129.42,43.86l.92.19a2.55,2.55,0,0,1-1,1.35,2.83,2.83,0,0,1-1.73.54A2.68,2.68,0,0,1,125.5,45a3.46,3.46,0,0,1-.8-2.41,3.56,3.56,0,0,1,.84-2.47,2.72,2.72,0,0,1,2.12-.94,2.55,2.55,0,0,1,2,.87,3.88,3.88,0,0,1,.78,2.6H125.8a2.47,2.47,0,0,0,.61,2,2,2,0,0,0,1.28.51A1.77,1.77,0,0,0,129.42,43.86Zm-.06-2a2.82,2.82,0,0,0-.17-.95,1.6,1.6,0,0,0-.56-.71,1.49,1.49,0,0,0-.94-.3,1.69,1.69,0,0,0-1.26.53,2.2,2.2,0,0,0-.58,1.43Z" style="fill:#005baa"/><path d="M135.35,43.53l.9.16a2.85,2.85,0,0,1-.85,1.66,2.54,2.54,0,0,1-3.64-.38,4,4,0,0,1-.69-2.39,3.87,3.87,0,0,1,.73-2.42,2.38,2.38,0,0,1,2-1,2.3,2.3,0,0,1,1.68.62,2.82,2.82,0,0,1,.78,1.62l-.9.17Q135.1,40,133.82,40a1.39,1.39,0,0,0-1.26.7,3.28,3.28,0,0,0-.45,1.81,3.53,3.53,0,0,0,.44,1.91,1.37,1.37,0,0,0,1.23.68C134.61,45.12,135.13,44.59,135.35,43.53Z" style="fill:#005baa"/><path d="M140.49,41.63l2.25,4.15h-1.13l-1.85-3.5-1.31,1.52v2h-1V39.38h1V41.8c0,.45,0,.8-.05,1A7.67,7.67,0,0,1,139,42l2.36-2.64h1.09Z" style="fill:#005baa"/><path d="M144.36,45.17v.61h-1V39.39h1v3.35c0,.47,0,1-.05,1.47.28-.44.55-.84.83-1.2l2.24-2.93v-.69h1v6.4h-1V42.57c0-.59,0-1.08,0-1.46a9.06,9.06,0,0,1-.83,1.18Z" style="fill:#005baa"/><path d="M151.12,45.18v.61h-1V39.4h1v3.35c0,.47,0,1-.05,1.47a13.2,13.2,0,0,1,.83-1.2l2.24-2.93V39.4h1v6.39h-1V42.58c0-.59,0-1.08.05-1.46a11.16,11.16,0,0,1-.83,1.18Zm-.41-8.41h.72a1,1,0,0,0,1.15.86c.68,0,1.08-.28,1.19-.86h.72a1.69,1.69,0,0,1-1.81,1.62A1.75,1.75,0,0,1,150.71,36.77Z" style="fill:#005baa"/><path d="M162.67,41.66l2.25,4.15H163.8l-1.86-3.51-1.3,1.53v2h-1V39.41h1v2.41a8.7,8.7,0,0,1,0,1,7.67,7.67,0,0,1,.63-.81l2.37-2.64h1.09Z" style="fill:#005baa"/><path d="M168.32,46a2.43,2.43,0,0,1-2-1,3.91,3.91,0,0,1-.73-2.42,3.5,3.5,0,0,1,.83-2.44,2.66,2.66,0,0,1,2.06-.91,2.52,2.52,0,0,1,2.09,1,3.73,3.73,0,0,1,.76,2.4,3.57,3.57,0,0,1-.83,2.44A2.7,2.7,0,0,1,168.32,46Zm.08-.82a1.57,1.57,0,0,0,1.27-.63,3,3,0,0,0,.52-1.95,2.83,2.83,0,0,0-.54-1.93,1.62,1.62,0,0,0-1.26-.6,1.57,1.57,0,0,0-1.25.61,2.93,2.93,0,0,0-.51,1.91,3,3,0,0,0,.51,2A1.62,1.62,0,0,0,168.4,45.17Z" style="fill:#005baa"/><path d="M172.58,45.82v-6.4h1.62l1.9,5.52,2-5.51h1.53v6.4h-1V40.3h-.08l-2,5.52h-1.08l-2-5.61h-.08v5.61Z" style="fill:#005baa"/><path d="M181.38,45.83v-6.4h4.81v6.39h-1V40.22h-2.82v5.62Z" style="fill:#005baa"/><path d="M187.17,45.83l2.12-6.39h1.19l2.06,6.39h-1l-1.6-5.19h-.19l-1.63,5.19Z" style="fill:#005baa"/><path d="M197.78,43.94l.93.19a2.61,2.61,0,0,1-1,1.36A2.84,2.84,0,0,1,196,46a2.69,2.69,0,0,1-2.12-.92,4,4,0,0,1,0-4.89,2.73,2.73,0,0,1,2.11-.94,2.62,2.62,0,0,1,2,.87,4,4,0,0,1,.78,2.6h-4.65a2.49,2.49,0,0,0,.6,1.95,2,2,0,0,0,1.29.51A1.75,1.75,0,0,0,197.78,43.94ZM197.73,42a2.83,2.83,0,0,0-.18-1,1.64,1.64,0,0,0-.55-.71,1.6,1.6,0,0,0-.95-.3,1.66,1.66,0,0,0-1.25.54,2.2,2.2,0,0,0-.59,1.43Z" style="fill:#005baa"/><path d="M203.15,41.71l2.25,4.15h-1.12l-1.86-3.51-1.31,1.53v2h-1V39.46h1v2.41a8.58,8.58,0,0,1-.05,1,7.67,7.67,0,0,1,.63-.81l2.37-2.64h1.08Z" style="fill:#005baa"/><path d="M209.93,43.62l.9.16a2.9,2.9,0,0,1-.84,1.66,2.55,2.55,0,0,1-3.65-.38,4,4,0,0,1-.69-2.38,3.9,3.9,0,0,1,.74-2.43,2.36,2.36,0,0,1,2-1,2.25,2.25,0,0,1,1.67.63,2.76,2.76,0,0,1,.78,1.61l-.9.17c-.16-1.06-.67-1.59-1.52-1.59a1.44,1.44,0,0,0-1.27.7,3.39,3.39,0,0,0-.44,1.81,3.53,3.53,0,0,0,.43,1.91,1.42,1.42,0,0,0,1.24.69C209.19,45.22,209.71,44.69,209.93,43.62Z" style="fill:#005baa"/></svg>