<svg id="Layer_1" data-name="Layer 1" xmlns="http://www.w3.org/2000/svg" xmlns:xlink="http://www.w3.org/1999/xlink" viewBox="0 0 168.72 110.61"><defs><clipPath id="clip-path"><path d="M111.74,32.43A27.41,27.41,0,1,1,84.33,5,27.41,27.41,0,0,1,111.74,32.43Z" style="fill:none;clip-rule:evenodd"/></clipPath></defs><title>logo</title><path d="M84.31,0a32.48,32.48,0,1,0,32.47,32.48A32.47,32.47,0,0,0,84.31,0Zm0,63.17A30.7,30.7,0,1,1,115,32.48,30.69,30.69,0,0,1,84.31,63.17Z" style="fill:#005baa;fill-rule:evenodd"/><g style="clip-path:url(#clip-path)"><path d="M84.05,6h0ZM84,31.19l1.26,0a22.24,22.24,0,0,0,20.23-15.53l.3-1.44A30.71,30.71,0,0,0,85.25,6H84a30.78,30.78,0,0,0-21,9.13h0v1.85c.17-.18.32-.37.5-.54A22.21,22.21,0,0,0,84,31.19Zm3,7.71.32.21c.2.11,2.26,1.29,2.26,5.24a13.89,13.89,0,0,1-.31,2.81,4.49,4.49,0,0,1,.08.83,5.29,5.29,0,0,1-9.55,3.17c-.05,3,1.34,3.85,1.42,3.89l.07.05,0,0c1.32,1.22,3.46.85,4.77.46a1.07,1.07,0,0,1,2.12.27,2,2,0,0,1-.06.28A9.41,9.41,0,0,0,87,38.9ZM78.53,51.3a13.08,13.08,0,0,1,.28-2.53,5,5,0,0,1-.06-.78,5.32,5.32,0,0,1,5.3-5.34,5.26,5.26,0,0,1,4.25,2.18c.17-3.58-1.5-4.54-1.59-4.6l-.06,0-.05,0c-1.37-1.16-3.5-.69-4.78-.24a1.07,1.07,0,0,1-1,.9,1.09,1.09,0,0,1-1.08-1.09.89.89,0,0,1,.07-.36A9.42,9.42,0,0,0,82.18,57a4.09,4.09,0,0,1-1.59-.87C80.46,56.08,78.53,54.93,78.53,51.3Zm27.82-3.15c-4.71-6.95-11.83-12-22-12.16-10.46-.19-16.84,5.34-21.86,11.59-.19-.23-.37-.47-.57-.7v1.94a30.77,30.77,0,0,0,45,.63V47.58ZM83.92,58.41A10.64,10.64,0,1,1,94.48,47.77,10.61,10.61,0,0,1,83.92,58.41Z" style="fill:#005baa"/></g><path d="M84.33,23A15.72,15.72,0,0,0,99.82,9.81q-.61-.35-1.26-.66A14.39,14.39,0,0,1,84.33,21.64,14.28,14.28,0,0,1,70.14,9.46c-.42.21-.84.44-1.25.68A15.61,15.61,0,0,0,84.33,23Z" style="fill:#fff;fill-rule:evenodd"/><path d="M85.1,31.27V6h-.46l-.88,0V31.27Z" style="fill:#fff;fill-rule:evenodd"/><rect x="83.76" y="21.62" width="1.35" height="1.35" style="fill:#0054a6"/><path d="M84.31,5a27.47,27.47,0,1,0,27.47,27.47A27.46,27.46,0,0,0,84.31,5Zm0,53.79a26.33,26.33,0,1,1,26.32-26.32A26.32,26.32,0,0,1,84.31,58.8Z" style="fill:#005baa;fill-rule:evenodd"/><path d="M18.68,97.58l-.78-.06-.72,0-.8,0-.74,0c-.25-.71-.54-1.54-.89-2.48s-.7-1.86-1.06-2.74-.71-1.74-1.07-2.6L9,81.13,5.26,89.74C3.8,93.39,2.85,96,2.38,97.56l-.57-.06-.49,0a4.53,4.53,0,0,0-.56,0l-.46,0,9-20.22H10l8.65,20.24Z" style="fill:#005baa"/><path d="M24.28,86.41h4.48c.35,0,.84,0,1.45-.07l1.13-.07a.81.81,0,0,0,0,.22,1.54,1.54,0,0,0,0,.3c0,.1,0,.17,0,.22s0,.13,0,.24,0,.21,0,.31a2,2,0,0,0,0,.27c-.28,0-.69,0-1.24-.08s-1-.07-1.34-.07H24.28v8.45c1.18,0,2.93,0,5.23-.1a20.11,20.11,0,0,0,2.67-.26q0,.11,0,.27c0,.11,0,.22,0,.33a1.42,1.42,0,0,0,0,.27,3.19,3.19,0,0,0,0,.42,3.44,3.44,0,0,1,0,.45H21.72l0-19.7H32c0,.12,0,.26-.06.42a2.66,2.66,0,0,0,0,.45,2.74,2.74,0,0,0,0,.45c0,.18,0,.32.05.42a20.42,20.42,0,0,0-2.61-.33l-2.9-.06H24.29v7.25Z" style="fill:#005baa"/><path d="M38.76,79.18c1.17,0,2.92,0,5.24.12a25.8,25.8,0,0,1,2.74.26q0-.11,0-.27c0-.11,0-.22,0-.33s0-.2,0-.27a3.19,3.19,0,0,1,0-.42c0-.15,0-.3.05-.44l-10.52,0,0,19.7.38,0,.5,0h.39l.39,0,.48,0,.41,0,0-18.34Z" style="fill:#005baa"/><path d="M53.22,86.45H57.7c.35,0,.83,0,1.45-.07l1.12-.07a1.22,1.22,0,0,1,0,.22c0,.11,0,.2,0,.3a1.31,1.31,0,0,0,0,.23,1.52,1.52,0,0,0,0,.24c0,.1,0,.21,0,.3s0,.2,0,.27c-.28,0-.68,0-1.23-.07s-1-.08-1.34-.08H53.22l0,8.45c1.18,0,2.93,0,5.24-.11a19.78,19.78,0,0,0,2.66-.25,1.58,1.58,0,0,1,0,.26c0,.11,0,.23,0,.34a1.38,1.38,0,0,0,0,.26,2.12,2.12,0,0,0,0,.43c0,.15,0,.3.05.44H50.67l0-19.7H61c0,.12,0,.26-.06.43a2.5,2.5,0,0,0,0,.89c0,.18,0,.32.06.42a20.87,20.87,0,0,0-2.61-.32l-2.9-.06H53.23v7.25Z" style="fill:#005baa"/><path d="M95.33,97.5l-.78-.06-.72,0-.79,0-.75,0c-.24-.71-.54-1.54-.89-2.48s-.7-1.86-1.05-2.74-.72-1.74-1.09-2.6H81.91Q79.73,95.14,79,97.48l-.56-.06-.5,0-.55,0c-.23,0-.39,0-.47.06l9-20.22h.68L95.33,97.5ZM85.62,81.05l-3.16,7.4h6.37l-3.21-7.41Z" style="fill:#005baa"/><path d="M100.63,97.5c-.18,0-.41,0-.68,0a4.87,4.87,0,0,0-.58,0c-.16,0-.38,0-.67,0l-.61.06,0-19.79h5.18a17.27,17.27,0,0,1,4.45.45,4,4,0,0,1,2.31,1.49,4.91,4.91,0,0,1,.7,2.81,6.17,6.17,0,0,1-.39,2.27,4.56,4.56,0,0,1-1.17,1.67,6.45,6.45,0,0,1-1.91,1.17,14.37,14.37,0,0,1-2.73.78,7.86,7.86,0,0,1-1.68.14c-.36,0-.78,0-1.3,0l-.93,0V97.5Zm0-10.22c.56,0,1,.07,1.33.07s.8,0,1.54-.06a5.22,5.22,0,0,0,3.36-1.47,4.43,4.43,0,0,0,1.21-3.21,4.23,4.23,0,0,0-.34-1.82,3.17,3.17,0,0,0-1.07-1.31,4,4,0,0,0-1.85-.6c-.4,0-1.15-.06-2.23-.06s-1.65,0-1.94,0v8.43Z" style="fill:#005baa"/><path d="M121.33,97.58l-.65,0a5.67,5.67,0,0,0-.61,0c-.14,0-.36,0-.65,0l-.62,0,0-18.45a61.77,61.77,0,0,0-6.33.34c0-.1,0-.25,0-.44a3.32,3.32,0,0,0,0-.43,3.21,3.21,0,0,0,0-.42,4.21,4.21,0,0,1,0-.45l14.92,0c0,.08,0,.16,0,.27s0,.22,0,.33,0,.2,0,.27,0,.16,0,.27a2.11,2.11,0,0,0,0,.33c0,.12,0,.21,0,.27a51.79,51.79,0,0,0-6-.35l0,18.44Z" style="fill:#005baa"/><path d="M130.87,97.54h.86c.43-.54.93-1.13,1.51-1.76L145.75,82H146l0,15.59.42-.06a3.21,3.21,0,0,1,.39,0,2.56,2.56,0,0,1,.43,0l.37,0,0-19.78h-1.12L132.77,92.66h-.29l0-14.9a3.65,3.65,0,0,0-.42,0,2.43,2.43,0,0,1-.38,0h-.25l-.31,0-.25,0,0,19.78Z" style="fill:#005baa"/><path d="M168.16,96.28a11.2,11.2,0,0,1-6.4,1.64,12,12,0,0,1-4.24-.72,8.68,8.68,0,0,1-5.24-5.37,12.38,12.38,0,0,1-.69-4.27A10.12,10.12,0,0,1,153,82.09,9.23,9.23,0,0,1,157,78.55a12.54,12.54,0,0,1,5.55-1.19,15.39,15.39,0,0,1,6.21,1.33,14.48,14.48,0,0,0-.6,2.23l-.2,0a6,6,0,0,0-1.06-1,8.06,8.06,0,0,0-2-1.06,6.54,6.54,0,0,0-2.5-.47,7.87,7.87,0,0,0-3.44.71,7,7,0,0,0-2.51,2,8.89,8.89,0,0,0-1.5,2.94,11.82,11.82,0,0,0-.52,3.55,11.15,11.15,0,0,0,1,4.8,7.19,7.19,0,0,0,6.77,4.33,8.25,8.25,0,0,0,3.62-.78,13.12,13.12,0,0,0,2.52-1.55l-.15,1.82Z" style="fill:#005baa"/><path d="M2.8,108.61a2.41,2.41,0,0,1-2.06-1A3.86,3.86,0,0,1,0,105.2a3.46,3.46,0,0,1,.84-2.44,2.63,2.63,0,0,1,2.07-.91,2.53,2.53,0,0,1,2.09,1,3.76,3.76,0,0,1,.76,2.41,3.62,3.62,0,0,1-.83,2.45A2.69,2.69,0,0,1,2.8,108.61Zm.07-.82a1.59,1.59,0,0,0,1.28-.63,3.07,3.07,0,0,0,.52-2,2.86,2.86,0,0,0-.54-1.94,1.65,1.65,0,0,0-1.26-.6,1.57,1.57,0,0,0-1.26.61,2.94,2.94,0,0,0-.52,1.92,3.09,3.09,0,0,0,.51,2A1.62,1.62,0,0,0,2.87,107.79Z" style="fill:#005baa"/><path d="M9.75,110.61v-2.17a3.28,3.28,0,0,1-2.25-1,3.08,3.08,0,0,1-.86-2.24A3,3,0,0,1,7.52,103a3.5,3.5,0,0,1,2.24-1V100h.87V102a3.49,3.49,0,0,1,2.24,1,2.92,2.92,0,0,1,.88,2.22,3.14,3.14,0,0,1-.86,2.24,3.36,3.36,0,0,1-2.26,1v2.16Zm0-7.83a2.24,2.24,0,0,0-2,2.48,2.19,2.19,0,0,0,2,2.42Zm.86,4.9a2.19,2.19,0,0,0,2-2.43,2.22,2.22,0,0,0-2-2.47Z" style="fill:#005baa"/><path d="M15.89,108.45v-5.63H14.12V102h4.57v.78h-1.8v5.63Z" style="fill:#005baa"/><path d="M24.33,108.46h-1a11.29,11.29,0,0,1-.12-1.15A2.32,2.32,0,0,1,21,108.64a2.25,2.25,0,0,1-1.65-.58,1.84,1.84,0,0,1-.58-1.37,1.93,1.93,0,0,1,.83-1.6,4.69,4.69,0,0,1,2.81-.62l.85,0a3.66,3.66,0,0,0-.12-1.1.94.94,0,0,0-.5-.54,2,2,0,0,0-1-.21c-1,0-1.6.39-1.77,1.16l-.92-.16c.23-1.18,1.17-1.77,2.84-1.77a2.52,2.52,0,0,1,1.88.59,2.94,2.94,0,0,1,.55,2v2.73A5.3,5.3,0,0,0,24.33,108.46Zm-1.09-3.21-.93,0a3.53,3.53,0,0,0-1.84.38,1.25,1.25,0,0,0-.65,1.13,1.1,1.1,0,0,0,.35.81,1.42,1.42,0,0,0,1,.33,1.89,1.89,0,0,0,1.48-.66,2.2,2.2,0,0,0,.58-1.53A3.25,3.25,0,0,0,23.24,105.25Z" style="fill:#005baa"/><path d="M25.21,108.46l2.12-6.41h1.21l2.06,6.41h-1L28,103.27h-.19l-1.63,5.19Z" style="fill:#005baa"/><path d="M31.48,108.47v-6.41h1v2.47h1.9a1.82,1.82,0,0,1,1.49.6,2.18,2.18,0,0,1,.5,1.48,1.77,1.77,0,0,1-.54,1.37,2.08,2.08,0,0,1-1.45.5Zm1-.78h1.68a1,1,0,0,0,1.13-1.1c0-.85-.37-1.28-1.12-1.28H32.48Z" style="fill:#005baa"/><path d="M37.45,108.48v-6.41h1.62L41,107.6l2-5.53h1.52v6.41h-1V103h-.08l-2,5.53H40.38l-2-5.63h-.08v5.63Z" style="fill:#005baa"/><path d="M48.53,108.67a2.44,2.44,0,0,1-2.06-1,3.92,3.92,0,0,1-.74-2.43,3.49,3.49,0,0,1,.84-2.45,2.7,2.7,0,0,1,2.07-.91,2.54,2.54,0,0,1,2.09,1,3.73,3.73,0,0,1,.76,2.4,3.55,3.55,0,0,1-.83,2.45A2.67,2.67,0,0,1,48.53,108.67Zm.08-.82a1.58,1.58,0,0,0,1.27-.63,3,3,0,0,0,.52-2,2.83,2.83,0,0,0-.54-1.93,1.65,1.65,0,0,0-1.26-.6,1.62,1.62,0,0,0-1.26.6,3,3,0,0,0-.51,1.92,3,3,0,0,0,.51,2A1.64,1.64,0,0,0,48.61,107.85Z" style="fill:#005baa"/><path d="M52,108.5l2.12-6.41h1.2l2.07,6.41h-1l-1.6-5.2h-.2l-1.62,5.2Z" style="fill:#005baa"/><path d="M60.62,108.69a2.46,2.46,0,0,1-2.06-1,3.91,3.91,0,0,1-.73-2.42,3.51,3.51,0,0,1,.83-2.45,2.69,2.69,0,0,1,2.07-.91,2.52,2.52,0,0,1,2.09,1,3.78,3.78,0,0,1,.77,2.41,3.65,3.65,0,0,1-.83,2.45A2.72,2.72,0,0,1,60.62,108.69Zm.08-.83a1.6,1.6,0,0,0,1.28-.63,3.07,3.07,0,0,0,.51-2,2.81,2.81,0,0,0-.53-1.94,1.65,1.65,0,0,0-1.27-.6,1.57,1.57,0,0,0-1.25.61,2.88,2.88,0,0,0-.52,1.92,3.09,3.09,0,0,0,.51,2A1.61,1.61,0,0,0,60.7,107.86Z" style="fill:#005baa"/><path d="M64.89,108.51V102.1h3.72v.79H65.9v5.63Z" style="fill:#005baa"/><path d="M70.62,107.91v.61h-1v-6.41h1v3.36c0,.47,0,1,0,1.47.27-.43.55-.83.83-1.2l2.24-2.94v-.69h1v6.41h-1V105.3c0-.59,0-1.08,0-1.47a9,9,0,0,1-.83,1.19Z" style="fill:#005baa"/><path d="M79.76,108.53v-2.75a2.63,2.63,0,0,1-1.76.63,2.54,2.54,0,0,1-1.37-.38,1.44,1.44,0,0,1-.59-1.29v-2.63h1v2.39c0,.72.4,1.08,1.21,1.08a2.5,2.5,0,0,0,1.51-.44v-3h1v6.41Z" style="fill:#005baa"/><path d="M86.92,106.63l.92.19a2.61,2.61,0,0,1-1,1.36,2.85,2.85,0,0,1-1.73.54,2.72,2.72,0,0,1-2.13-.93,4,4,0,0,1,0-4.9,2.72,2.72,0,0,1,2.12-.94,2.55,2.55,0,0,1,2,.87,3.9,3.9,0,0,1,.78,2.6H83.29a2.47,2.47,0,0,0,.61,2,2,2,0,0,0,1.29.51A1.77,1.77,0,0,0,86.92,106.63Zm-.06-1.95a2.83,2.83,0,0,0-.18-1,1.58,1.58,0,0,0-.55-.71,1.54,1.54,0,0,0-.95-.3,1.72,1.72,0,0,0-1.26.53,2.17,2.17,0,0,0-.58,1.44Z" style="fill:#005baa"/><path d="M92.86,106.3l.9.16a2.84,2.84,0,0,1-.84,1.66,2.56,2.56,0,0,1-3.66-.38,4,4,0,0,1-.69-2.39,3.92,3.92,0,0,1,.74-2.43,2.35,2.35,0,0,1,2-1,2.3,2.3,0,0,1,1.67.62,2.77,2.77,0,0,1,.79,1.62l-.9.17c-.17-1.06-.68-1.59-1.54-1.59a1.42,1.42,0,0,0-1.27.7,3.4,3.4,0,0,0-.44,1.82,3.44,3.44,0,0,0,.44,1.91,1.38,1.38,0,0,0,1.24.69C92.12,107.9,92.64,107.37,92.86,106.3Z" style="fill:#005baa"/><path d="M98,104.39l2.25,4.17H99.15L97.29,105,96,106.57v2H95v-6.41h1v2.42a8.58,8.58,0,0,1,0,1,7.67,7.67,0,0,1,.63-.81l2.38-2.65H100Z" style="fill:#005baa"/><path d="M101.9,108v.61h-1v-6.42h1v3.36c0,.47,0,1,0,1.47a11.46,11.46,0,0,1,.83-1.2l2.24-2.94v-.69h1v6.41h-1v-3.22c0-.59,0-1.08,0-1.47a9,9,0,0,1-.83,1.19Z" style="fill:#005baa"/><path d="M108.68,108v.61h-1v-6.42h1v3.37c0,.47,0,1-.05,1.47.28-.44.55-.84.83-1.2l2.25-2.94v-.69h1v6.41h-1v-3.22c0-.59,0-1.08,0-1.47a11,11,0,0,1-.83,1.19Zm-.41-8.44H109a1,1,0,0,0,1.15.87,1.05,1.05,0,0,0,1.2-.87h.73a1.71,1.71,0,0,1-1.82,1.63A1.76,1.76,0,0,1,108.27,99.52Z" style="fill:#005baa"/><path d="M120.27,104.42l2.25,4.16H121.4l-1.86-3.51-1.31,1.53v2h-1v-6.41h1v2.42a8.7,8.7,0,0,1,0,1,7.67,7.67,0,0,1,.63-.81l2.38-2.65h1.09Z" style="fill:#005baa"/><path d="M125.94,108.77a2.44,2.44,0,0,1-2.06-1,4,4,0,0,1-.74-2.43,3.49,3.49,0,0,1,.84-2.45,2.67,2.67,0,0,1,2.07-.91,2.53,2.53,0,0,1,2.09,1,3.77,3.77,0,0,1,.76,2.41,3.6,3.6,0,0,1-.83,2.45A2.7,2.7,0,0,1,125.94,108.77Zm.08-.83a1.58,1.58,0,0,0,1.27-.63,3,3,0,0,0,.52-2,2.83,2.83,0,0,0-.54-1.93,1.63,1.63,0,0,0-1.26-.61,1.57,1.57,0,0,0-1.26.61,3.93,3.93,0,0,0,0,3.91A1.6,1.6,0,0,0,126,107.94Z" style="fill:#005baa"/><path d="M130.21,108.59v-6.41h1.62l1.9,5.54,2-5.53h1.52v6.41h-1v-5.54h-.08l-2,5.54h-1.08l-2-5.63h-.09v5.63Z" style="fill:#005baa"/><path d="M139,108.6v-6.41h4.83v6.41h-1V103H140v5.64Z" style="fill:#005baa"/><path d="M144.84,108.61,147,102.2h1.2l2.07,6.42h-1l-1.6-5.2h-.2l-1.62,5.2Z" style="fill:#005baa"/><path d="M155.48,106.71l.93.2a2.65,2.65,0,0,1-1,1.36,2.92,2.92,0,0,1-1.74.53,2.68,2.68,0,0,1-2.12-.93,4,4,0,0,1,0-4.9,2.75,2.75,0,0,1,2.12-.94,2.55,2.55,0,0,1,2,.87,3.93,3.93,0,0,1,.78,2.61h-4.66a2.49,2.49,0,0,0,.61,2,2,2,0,0,0,1.28.51A1.76,1.76,0,0,0,155.48,106.71Zm0-1.94a2.83,2.83,0,0,0-.18-1,1.61,1.61,0,0,0-.56-.72,1.49,1.49,0,0,0-.94-.3,1.66,1.66,0,0,0-1.26.54,2.2,2.2,0,0,0-.59,1.43Z" style="fill:#005baa"/><path d="M160.87,104.47l2.25,4.16H162l-1.86-3.51-1.31,1.53v2h-1v-6.41h1v2.42a8.7,8.7,0,0,1-.05,1,7.67,7.67,0,0,1,.63-.81l2.38-2.65h1.09Z" style="fill:#005baa"/><path d="M167.67,106.39l.9.16a2.88,2.88,0,0,1-.85,1.67,2.31,2.31,0,0,1-1.63.6,2.34,2.34,0,0,1-2-1,4,4,0,0,1-.69-2.4,3.92,3.92,0,0,1,.73-2.43,2.39,2.39,0,0,1,2-1,2.27,2.27,0,0,1,1.68.63,2.76,2.76,0,0,1,.78,1.61l-.9.17q-.25-1.59-1.53-1.59a1.44,1.44,0,0,0-1.27.7,3.34,3.34,0,0,0-.45,1.82,3.59,3.59,0,0,0,.44,1.92,1.4,1.4,0,0,0,1.24.68C166.92,108,167.45,107.46,167.67,106.39Z" style="fill:#005baa"/></svg>