<svg id="Layer_1" data-name="Layer 1" xmlns="http://www.w3.org/2000/svg" viewBox="0 0 467.81 467.79"><title>tag</title><path d="M466.93,87.24c-2-5.34-3.46-10.84-6.25-15.84a5.19,5.19,0,0,1-.66-2.12A52.52,52.52,0,0,0,415.27,44.2H293.81a61,61,0,0,0-43.41,18L7.61,305a26,26,0,0,0,0,36.76L170.28,504.39a26,26,0,0,0,36.76,0L449.83,261.6a61,61,0,0,0,18-43.4V96.73A53,53,0,0,0,466.93,87.24ZM438.1,249.87,195.31,492.66a9.41,9.41,0,0,1-13.3,0L19.34,330a9.42,9.42,0,0,1,0-13.3L262.14,73.91a44.48,44.48,0,0,1,31.67-13.12H415.27a36,36,0,0,1,31.62,18.86l-.6.34a4.93,4.93,0,0,1,1.56,2.75,5,5,0,0,1,.41,1.28,5.38,5.38,0,0,1,.84,2.74,5.62,5.62,0,0,1,.37,1.57,4.67,4.67,0,0,1,.82,2.78c0,.73,0,1.45,0,2.18a5.71,5.71,0,0,1,0,4l.94-.61s0,.06,0,.09V218.2h0A44.5,44.5,0,0,1,438.1,249.87Z" transform="translate(0 -44.2)"/><path d="M422.59,115.26c-2.92-5.71-6.11-11.28-9.41-16.79a34.93,34.93,0,1,0,9.41,16.79Zm-21,20.92a18.26,18.26,0,1,1-4.24-28.93,5.21,5.21,0,0,1,.52.28c.46.27.91.56,1.36.87h0a4.37,4.37,0,0,1,2.4,2.16,5.9,5.9,0,0,1,.42.6,5.15,5.15,0,0,1,.8,1.88,5,5,0,0,1,.57,1.37,4.6,4.6,0,0,1,.25.61,5,5,0,0,1,.64,1.32,5.32,5.32,0,0,1,.47.92,4.71,4.71,0,0,1,.67,1.3,3,3,0,0,1,.21.35h0l0,0a3.52,3.52,0,0,1,.28.59,2.6,2.6,0,0,1,.1.25l.06.15,0,.12,0,0a5.26,5.26,0,0,1,.29,1.51v.09a5.49,5.49,0,0,1,.32,1.55l.18-.1A18.14,18.14,0,0,1,401.63,136.18Z" transform="translate(0 -44.2)"/><path d="M247.16,169a8.3,8.3,0,0,0-8.29,8.3V352.44a8.3,8.3,0,0,0,16.59,0V177.26A8.31,8.31,0,0,0,247.16,169Z" transform="translate(0 -44.2)"/><path d="M209.23,240.21a34.83,34.83,0,1,0,10.21,24.64A34.89,34.89,0,0,0,209.23,240.21ZM197.5,277.75a18.24,18.24,0,1,1,5.35-12.9A18.27,18.27,0,0,1,197.5,277.75Z" transform="translate(0 -44.2)"/><path d="M334.36,240.21a34.83,34.83,0,1,0,0,49.27A34.89,34.89,0,0,0,334.36,240.21Zm-11.73,37.54a18.24,18.24,0,1,1,0-25.81A18.27,18.27,0,0,1,322.63,277.75Z" transform="translate(0 -44.2)"/><path d="M413.35,98.65a34.82,34.82,0,1,0,0,49.27A34.87,34.87,0,0,0,413.35,98.65Zm-11.73,37.53a18.25,18.25,0,1,1-4-28.79l.31.18c.43.26.86.54,1.27.83a4.4,4.4,0,0,1,2.24,1.83l.15.15A18.27,18.27,0,0,1,401.62,136.18Z" transform="translate(0 -44.2)"/></svg>